<mxfile host="Electron" modified="2025-02-07T09:23:58.706Z" agent="Mozilla/5.0 (Macintosh; Intel Mac OS X 10_15_7) AppleWebKit/537.36 (KHTML, like Gecko) draw.io/24.5.3 Chrome/124.0.6367.207 Electron/30.0.6 Safari/537.36" etag="-gs2qa4or8PP1YwygnrF" version="24.5.3" type="device">
  <diagram name="Page-1" id="ha3-Y03p4xSsjCJIenTy">
    <mxGraphModel dx="733" dy="531" grid="1" gridSize="10" guides="1" tooltips="1" connect="1" arrows="1" fold="1" page="1" pageScale="1" pageWidth="1169" pageHeight="827" math="0" shadow="0">
      <root>
        <mxCell id="0" />
        <mxCell id="1" parent="0" />
        <mxCell id="b8NWn7PsdyPl2fr5w7l8-8" value="&lt;br&gt;&lt;br&gt;&lt;div&gt;«software product»&lt;br&gt;&lt;b&gt;shared,&amp;nbsp;&lt;/b&gt;&lt;div&gt;&lt;b&gt;platform-agnostic&amp;nbsp;&lt;/b&gt;&lt;/div&gt;&lt;div&gt;&lt;b&gt;code&lt;/b&gt;&lt;/div&gt;&lt;/div&gt;" style="html=1;dropTarget=0;whiteSpace=wrap;" vertex="1" parent="1">
          <mxGeometry x="202" y="250" width="190" height="140" as="geometry" />
        </mxCell>
        <mxCell id="b8NWn7PsdyPl2fr5w7l8-9" value="" style="shape=module;jettyWidth=8;jettyHeight=4;" vertex="1" parent="b8NWn7PsdyPl2fr5w7l8-8">
          <mxGeometry x="1" width="20" height="20" relative="1" as="geometry">
            <mxPoint x="-182" y="8" as="offset" />
          </mxGeometry>
        </mxCell>
        <mxCell id="b8NWn7PsdyPl2fr5w7l8-10" value="" style="rounded=0;orthogonalLoop=1;jettySize=auto;html=1;endArrow=halfCircle;endFill=0;endSize=6;strokeWidth=1;sketch=0;exitX=0;exitY=0.5;exitDx=0;exitDy=0;" edge="1" target="b8NWn7PsdyPl2fr5w7l8-12" parent="1" source="b8NWn7PsdyPl2fr5w7l8-22">
          <mxGeometry relative="1" as="geometry">
            <mxPoint x="435" y="270" as="sourcePoint" />
          </mxGeometry>
        </mxCell>
        <mxCell id="b8NWn7PsdyPl2fr5w7l8-11" value="" style="rounded=0;orthogonalLoop=1;jettySize=auto;html=1;endArrow=oval;endFill=0;sketch=0;sourcePerimeterSpacing=0;targetPerimeterSpacing=0;endSize=10;exitX=0.996;exitY=0.165;exitDx=0;exitDy=0;exitPerimeter=0;" edge="1" target="b8NWn7PsdyPl2fr5w7l8-12" parent="1" source="b8NWn7PsdyPl2fr5w7l8-8">
          <mxGeometry relative="1" as="geometry">
            <mxPoint x="400" y="270" as="sourcePoint" />
          </mxGeometry>
        </mxCell>
        <mxCell id="b8NWn7PsdyPl2fr5w7l8-12" value="" style="ellipse;whiteSpace=wrap;html=1;align=center;aspect=fixed;fillColor=none;strokeColor=none;resizable=0;perimeter=centerPerimeter;rotatable=0;allowArrows=0;points=[];outlineConnect=1;" vertex="1" parent="1">
          <mxGeometry x="410" y="268" width="10" height="10" as="geometry" />
        </mxCell>
        <mxCell id="b8NWn7PsdyPl2fr5w7l8-16" value="" style="rounded=0;orthogonalLoop=1;jettySize=auto;html=1;endArrow=halfCircle;endFill=0;endSize=6;strokeWidth=1;sketch=0;exitX=0;exitY=0.5;exitDx=0;exitDy=0;" edge="1" target="b8NWn7PsdyPl2fr5w7l8-18" parent="1" source="b8NWn7PsdyPl2fr5w7l8-24">
          <mxGeometry relative="1" as="geometry">
            <mxPoint x="435" y="310" as="sourcePoint" />
          </mxGeometry>
        </mxCell>
        <mxCell id="b8NWn7PsdyPl2fr5w7l8-17" value="" style="rounded=0;orthogonalLoop=1;jettySize=auto;html=1;endArrow=oval;endFill=0;sketch=0;sourcePerimeterSpacing=0;targetPerimeterSpacing=0;endSize=10;exitX=1;exitY=0.5;exitDx=0;exitDy=0;" edge="1" target="b8NWn7PsdyPl2fr5w7l8-18" parent="1" source="b8NWn7PsdyPl2fr5w7l8-8">
          <mxGeometry relative="1" as="geometry">
            <mxPoint x="400" y="310" as="sourcePoint" />
          </mxGeometry>
        </mxCell>
        <mxCell id="b8NWn7PsdyPl2fr5w7l8-18" value="" style="ellipse;whiteSpace=wrap;html=1;align=center;aspect=fixed;fillColor=none;strokeColor=none;resizable=0;perimeter=centerPerimeter;rotatable=0;allowArrows=0;points=[];outlineConnect=1;" vertex="1" parent="1">
          <mxGeometry x="410" y="315" width="10" height="10" as="geometry" />
        </mxCell>
        <mxCell id="b8NWn7PsdyPl2fr5w7l8-73" style="edgeStyle=orthogonalEdgeStyle;rounded=0;orthogonalLoop=1;jettySize=auto;html=1;exitX=1;exitY=0.5;exitDx=0;exitDy=0;" edge="1" parent="1" source="b8NWn7PsdyPl2fr5w7l8-22" target="b8NWn7PsdyPl2fr5w7l8-71">
          <mxGeometry relative="1" as="geometry" />
        </mxCell>
        <mxCell id="b8NWn7PsdyPl2fr5w7l8-74" value="compile to" style="edgeLabel;html=1;align=center;verticalAlign=middle;resizable=0;points=[];" vertex="1" connectable="0" parent="b8NWn7PsdyPl2fr5w7l8-73">
          <mxGeometry x="-0.1311" relative="1" as="geometry">
            <mxPoint as="offset" />
          </mxGeometry>
        </mxCell>
        <mxCell id="b8NWn7PsdyPl2fr5w7l8-22" value="«product to &lt;b&gt;native&lt;/b&gt;&amp;nbsp;&lt;div&gt;interface»&lt;/div&gt;" style="html=1;dropTarget=0;whiteSpace=wrap;fillColor=#99cc00;" vertex="1" parent="1">
          <mxGeometry x="436" y="253" width="180" height="40" as="geometry" />
        </mxCell>
        <mxCell id="b8NWn7PsdyPl2fr5w7l8-23" value="" style="shape=module;jettyWidth=8;jettyHeight=4;" vertex="1" parent="b8NWn7PsdyPl2fr5w7l8-22">
          <mxGeometry x="1" width="20" height="20" relative="1" as="geometry">
            <mxPoint x="-27" y="7" as="offset" />
          </mxGeometry>
        </mxCell>
        <mxCell id="b8NWn7PsdyPl2fr5w7l8-24" value="«product to &lt;b&gt;JVM&lt;/b&gt;&amp;nbsp;&lt;div&gt;interface»&lt;/div&gt;" style="html=1;dropTarget=0;whiteSpace=wrap;fillColor=#ffcc00;strokeColor=#000000;" vertex="1" parent="1">
          <mxGeometry x="436" y="300" width="180" height="40" as="geometry" />
        </mxCell>
        <mxCell id="b8NWn7PsdyPl2fr5w7l8-25" value="" style="shape=module;jettyWidth=8;jettyHeight=4;" vertex="1" parent="b8NWn7PsdyPl2fr5w7l8-24">
          <mxGeometry x="1" width="20" height="20" relative="1" as="geometry">
            <mxPoint x="-27" y="7" as="offset" />
          </mxGeometry>
        </mxCell>
        <mxCell id="b8NWn7PsdyPl2fr5w7l8-26" value="" style="rounded=0;orthogonalLoop=1;jettySize=auto;html=1;endArrow=halfCircle;endFill=0;endSize=6;strokeWidth=1;sketch=0;exitX=0;exitY=0.5;exitDx=0;exitDy=0;" edge="1" parent="1" target="b8NWn7PsdyPl2fr5w7l8-28" source="b8NWn7PsdyPl2fr5w7l8-29">
          <mxGeometry relative="1" as="geometry">
            <mxPoint x="445" y="365" as="sourcePoint" />
          </mxGeometry>
        </mxCell>
        <mxCell id="b8NWn7PsdyPl2fr5w7l8-27" value="" style="rounded=0;orthogonalLoop=1;jettySize=auto;html=1;endArrow=oval;endFill=0;sketch=0;sourcePerimeterSpacing=0;targetPerimeterSpacing=0;endSize=10;exitX=0.999;exitY=0.821;exitDx=0;exitDy=0;exitPerimeter=0;" edge="1" parent="1" target="b8NWn7PsdyPl2fr5w7l8-28" source="b8NWn7PsdyPl2fr5w7l8-8">
          <mxGeometry relative="1" as="geometry">
            <mxPoint x="392" y="365" as="sourcePoint" />
          </mxGeometry>
        </mxCell>
        <mxCell id="b8NWn7PsdyPl2fr5w7l8-28" value="" style="ellipse;whiteSpace=wrap;html=1;align=center;aspect=fixed;fillColor=none;strokeColor=none;resizable=0;perimeter=centerPerimeter;rotatable=0;allowArrows=0;points=[];outlineConnect=1;" vertex="1" parent="1">
          <mxGeometry x="410" y="360" width="10" height="10" as="geometry" />
        </mxCell>
        <mxCell id="b8NWn7PsdyPl2fr5w7l8-29" value="«product to &lt;b&gt;JS&lt;/b&gt;&amp;nbsp;&lt;div&gt;interface»&lt;/div&gt;" style="html=1;dropTarget=0;whiteSpace=wrap;fillColor=#ff99cc;sketch=1;curveFitting=1;jiggle=2;shadow=0;rounded=1;dashed=1;dashPattern=1 4;" vertex="1" parent="1">
          <mxGeometry x="436" y="345" width="180" height="40" as="geometry" />
        </mxCell>
        <mxCell id="b8NWn7PsdyPl2fr5w7l8-30" value="" style="shape=module;jettyWidth=8;jettyHeight=4;" vertex="1" parent="b8NWn7PsdyPl2fr5w7l8-29">
          <mxGeometry x="1" width="20" height="20" relative="1" as="geometry">
            <mxPoint x="-27" y="7" as="offset" />
          </mxGeometry>
        </mxCell>
        <mxCell id="b8NWn7PsdyPl2fr5w7l8-32" value="&lt;b&gt;API&lt;/b&gt;" style="html=1;whiteSpace=wrap;" vertex="1" parent="1">
          <mxGeometry x="355" y="260" width="30" height="120" as="geometry" />
        </mxCell>
        <mxCell id="b8NWn7PsdyPl2fr5w7l8-78" value="" style="group" vertex="1" connectable="0" parent="1">
          <mxGeometry x="675.4" y="237.70000000000002" width="60" height="70.6" as="geometry" />
        </mxCell>
        <mxCell id="b8NWn7PsdyPl2fr5w7l8-71" value="" style="verticalLabelPosition=bottom;html=1;verticalAlign=top;strokeWidth=1;align=center;outlineConnect=0;dashed=0;outlineConnect=0;shape=mxgraph.aws3d.file;aspect=fixed;strokeColor=#292929;" vertex="1" parent="b8NWn7PsdyPl2fr5w7l8-78">
          <mxGeometry x="14.600000000000023" width="30.8" height="70.6" as="geometry" />
        </mxCell>
        <mxCell id="b8NWn7PsdyPl2fr5w7l8-77" value=".so" style="text;html=1;align=center;verticalAlign=middle;whiteSpace=wrap;rounded=0;" vertex="1" parent="b8NWn7PsdyPl2fr5w7l8-78">
          <mxGeometry x="14.6" y="20.3" width="30" height="30" as="geometry" />
        </mxCell>
        <mxCell id="b8NWn7PsdyPl2fr5w7l8-79" value="" style="endArrow=none;html=1;rounded=0;entryX=0.5;entryY=1;entryDx=0;entryDy=0;exitX=0.5;exitY=0;exitDx=0;exitDy=0;dashed=1;" edge="1" parent="1" source="b8NWn7PsdyPl2fr5w7l8-80" target="b8NWn7PsdyPl2fr5w7l8-32">
          <mxGeometry width="50" height="50" relative="1" as="geometry">
            <mxPoint x="370" y="450" as="sourcePoint" />
            <mxPoint x="360" y="430" as="targetPoint" />
          </mxGeometry>
        </mxCell>
        <mxCell id="b8NWn7PsdyPl2fr5w7l8-82" value="&lt;i&gt;mirror&lt;/i&gt;" style="edgeLabel;html=1;align=center;verticalAlign=middle;resizable=0;points=[];" vertex="1" connectable="0" parent="b8NWn7PsdyPl2fr5w7l8-79">
          <mxGeometry x="-0.2711" y="-1" relative="1" as="geometry">
            <mxPoint x="17" y="-5" as="offset" />
          </mxGeometry>
        </mxCell>
        <mxCell id="b8NWn7PsdyPl2fr5w7l8-80" value="«user to product interface»&lt;br&gt;&lt;b&gt;language-agnostic&lt;br&gt;API&lt;/b&gt;&lt;div&gt;&lt;font style=&quot;font-size: 9px;&quot;&gt;(IDL / DSL)&lt;/font&gt;&lt;/div&gt;" style="html=1;dropTarget=0;whiteSpace=wrap;dashed=1;sketch=1;curveFitting=1;jiggle=2;" vertex="1" parent="1">
          <mxGeometry x="270" y="450" width="200" height="70" as="geometry" />
        </mxCell>
        <mxCell id="b8NWn7PsdyPl2fr5w7l8-81" value="" style="shape=module;jettyWidth=8;jettyHeight=4;" vertex="1" parent="b8NWn7PsdyPl2fr5w7l8-80">
          <mxGeometry x="1" width="20" height="20" relative="1" as="geometry">
            <mxPoint x="-196" y="8" as="offset" />
          </mxGeometry>
        </mxCell>
        <mxCell id="b8NWn7PsdyPl2fr5w7l8-83" value="" style="shape=image;aspect=fixed;image=data:image/png,iVBORw0KGgoAAAANSUhEUgAAAMgAAADICAYAAACtWK6eAABlUklEQVR4nOz9CZAk6XnfB7/V3dX3fd/XzPTszN4EsAcAgvyAhUQAFA+R1GeLpE05ZMsK0VaEzBBDdtiKkC2FZVKSddkRFknJAYsMmRRBKSACBAhQuJYgCHCXu3Mffd/33dXd1VWOX07+SomVsJoFZnc2F/VGdHR3Veabb2Y+z/vc/6cilEd5lMe3HGUGKY/yeJ1RZpDyKI/XGWUGKY/yeJ1RZpDyKI/XGWUGKY/yeJ1RZpDyKI/XGWUGKY/yeJ1RZpDyKI/XGWUGKY+3dFycmIh+0jLKDFIeb+n4qY/+yQ+db6itedjruN9RZpDyeMvGD/+JD/f2X7z8j3JNLcWHvZb7HVUPewHl8d0xfvInfvzSj/zon/6XRyfHIw97LW9klBmkPN7U8djlyzX/1Z/7mb+cqan968WqqvrKwtluZWVlWYKUx3f3eO6ZZ7M/9JEf+HODIyM/39DaOr61uRkKhUKozlbXnJycZB72+u53lBmkPB7YaGtrC+9/7tnun/zJn/ove/r6/rPF5eWJbDYbjnO5UF1dHSoqKkK2qmq7qbHp7GGv9X5HmUHK4zse3/v8c5XPPf/8n3j2Pc/82ZOzs/9/XVNTdnZ+PhwdHYXGxsZQWVkZqqqqQi6XC1V1tXVnJ8cVIYRUMEmZQcrj2xrvedf3VPyJD73w5ONPPP5T9U3NP97S2jq8tLQUGpubw/b2djg7OwvNzc1hZ2cndHZ2hoODg4hZ8icn1fl8vqxilcc7b1y+eLHq//d9H/ieFz784T9zmj/705XV1WN1dXVhZmYm5I6Pw/7+fkClam9vD5ubm5HUQIrk8/nAcUiSo+Pj42w2WzbSyyP9o662Njz1+OOt73r66Q+9693v+mhTa9sLVdXVwycnJ+E4nw81lZXh8PAw1NbWRoyADcJ3xWIxYhYkSHd3d8Qcx8fHYWtrK1RXVFQVzs7KEqQ80jkG+/srXvjgBy8/9uijHxwZGflIsbLy+07z+TqIHCY4ODoKra2tYXl5OfT09ETnIDEwwFGtYAqYoa+vL5IcGOe7u7sRw7S0tISTw8NiyISyBCmPdIyO9vbw+KOXxy5ffvSDzz77zPc3Nbd8b3Vt7eDKykrlcaEQqquqIiKHwDs6OiLiPz09DU1NTZFt8corr0QMgqTgGAZqFsy0t7cXampqIkbp7e0N9fX1YW5vt6JYLJYlSHm8PUdHe1t4z7vedWF8/Nz3j42Nvf/S5Uvv2zs4HK2urq6E4LEd1tbWIjUJ1YnfmUwmYhIMbgif4xoaGsLi4mIYGxuLmAbpgYrFsTAFTMT/GOsY5xyDlKmrq89XVpQDheXxNhhjw8Ph3PnzTRMTF55+9tnn3nN6evqB3t7e96xvbHSfFQqV7PTFTEVE+DIDDIA6BaHncrlo9+cz1COInXM0vjG6+UEyID1gDJiLc5EYc3NzkapVKBSCzFdRUZFJDXeUGeSdM86NjYWLExcaxkdHHxsZGX360qVL7zrO55/NFwoT9fX1NRArqlAhhDA8MhLu3r0bSQHsA4gZA5odHkIfGRmJjG9UJNQqGAcm4FiOWV9fj5gBRoEhYC4kCEwEQ0RG/PFx6O/vj5gMhuFcRv70NFsou3nL480adbW1YWRoqPLihQtd4+fGnxgaHn7qwvnzjzY0Nz+9u7d/fmNjow7CPw0hnBWLESFD6F1dXRFxMyBa1B7UIHZ3GAAmWVlZCYODgxHRcx7GeJQeUl0dxTEwwJUo/GY+vkOKwHwwEWoXDMP8SBukDhIKdYvr5o6OMiE9NnqZQd7O44lHL1cMDQ+3dHV2ToyNjT/aWF///IUL50fqGpseX11f7+3p6QlLS0thdXMr1B3lIkKFiNnZIXqIEokAwUKs7OyoT/Pz8xEj3Lx5M2IcCB5mgcAhaIgeBmFwvoE+jkOyhNhzhSRBwsCAMg/zI0k4HqmE8c6cMAdram5uOqqurkkNh5QZ5CEPiK+zrbX+0qVL3T09PY+NjY2PV1ZkvufJJ5/qOzo5uZytru5fXV2tgOj5OTzNh+NYXdnY2Ih2ceaAWCFSiBH1BmLkt/YCn0O4Sg+Oh3gZ7PADAwPRXMwJQ3EuTMUPxM55RsdRmTgGFYrrwCTMx7U4BnUKKQajwTxcB8bivMaGxprT03KyYnkkRkd7W2htaWm//MilnvHz58831NVNDA8P9Xf19Fw8Pj65WAyhJ1NR0QSxQVyjo6NhZWMjcqVCWOzmfAfRQexIAoidz1ZXVyPCREViB8cWgDAhRhkFAoXI+QxmCLEEYCwvL0fnMgdEjhTBmPZ7pBKDNTAvc3Id5uFvpY6MgyRC6rAuJBznwXSsnWOKxeJxNltdeIiv4w2NMoM8gPH0k09WHB4edl5+5JHeqpqa8ab6+pGn3/Wuvvq6upH21tYLx4Wz/r3dvY5MRUU1hO1OWygWw9HxcaTrQ/To+xArhAphQ+xIB+0IiBLie/TRR8P09HREjKg0zMe5ECxDpkD9Yt6FhYVoDpgPSQHj8TmEDhEzD0SstEEi8BnH8zfHwih8hkThNxKFz/jN+lkX87JG5szFGbzGT5iL44uFQqYcB3mHjOGhoVBXne3q6O5p7Wxt7R4YGRmoDMX+4fFzfdUVFe0Tly6N72xunjvI5Zp7+/oai8Vill1UtyhEEaVk1NSGbEd1RJAQqukZMAA7KwSIenMUR6nV5zkfYsR45jOOYWd/6aWXIk8TxMj/nB9FuQ8Oovn4HGMZAtV9y3cQKgQ7NzcXxS+wESBqXbYwGedrzKNCsVbdv8zFOjhOdy/XQOIwD/fOD9LD58AxzA0jR7GSpqZQNtLfRgOiGBoaCoWzs4qqTKb9wiMX24rFUH1ydNg3cely28nJSUM+l+sbv3ixs5g/bamtqx8cGBxoLp4Veo7z+a5MJlObzWazEi07rUS+u7cXjthVq6sjQoZQ0O8hoLW1tYjYJCQIVFen7lUJke/5X68REkQ7AAJEinAsUoT52aEhNtQbiJFjjVFAzBzDfcMAppkzB+czHwY698L1mAfi5lpcO2lDsGbui/vlcxMOmY9zuF+lFsfAFJzHPMzPudohnM9a8vn8aVVlVWo4JDUM8o9/8ReeCsXCRzOZCh52ZaiqOqusq28/OTmpaWpqyuRPTyv7O9ob6uvqmvPZ6nZ288pMpnplcWG0oqa2rq2tLXNyfFyZqajIssPyEqP063w+mh8G0Og9KxRDXX19ZAyz446Pj0fEBhFAALxwiJPz3ZmZkzmsfYA40O8hTJiJ45UOfG6+EgSq0QvhSZx8xrFIB46/cOFCaa2RsRtHp7u6ukoqDwwC4cIkRsMZGusQKZ9JuNwv6+Vz5uRv5oAReD5cm+9Q+5BI3CPnMgfPgGtxfdalbcJxbEgc43qZj3N5fo0N9adVVVVlG+RBj8ELE+/f29v7m0Zt9e0biIpSrHd3Q6auPqwtLpZygPYOj8JYT2/JzXga78qIf5gBQtNDZKIdQ0LgcwgFQlbfl4i4rkl6bW1tJULkN9+h78sAEKMJf5wDc7irch2IjXnZlZnr7t27kbHO8UosjlMqcKzrNTYBA+px0p7g2qh7ELxu4Nu3b0dEz3o4VletxjfHcR7z8T9r5zpGzlm/EkQpyFBl5Lpcj+94jqxJY/9gf7/xKJfjn1QwSWpgf3jhqAaKdwgMgkHd4DcvBEJC5eBl8HKNBcAQnMeLgijUzWE0dff5+fmSK9NEO36YS+aAKE2tgHDYpWFS1Qu+Y27Wyho5j+uE2Gt0/vz5iGg4H6aDOfkewuRHGwBmQGohTWRcjme9/M8xrFWPljaARMlcrIV751jWp7qm0cx53A9Dg53PmYc1cSyfs27O5z5VFfWGcS1zr/jNuazV9XEsg3fhMYVC8TibzaaCOUKaJAgvg4fOg4Yw3HUhJgkMwoOoDYppIEr4EDnfu8tDoJyDzq+RyfH8D4HwPS9X6aN+zrnsynwHcUJY/Ja4ZUTVMM5lzsnJyegzvofBOZYdVibivow/6HKNarqPj6Nrs0ZtHF2sqDS6WFmbxMx9Kq2MQaiKcQyfY/yjuvGsDBiyNlVE1SzO5R64p6iuPPZkMZReDp8Va1Nl08MVHZs7qiwUCqnxYqVGgkAgU1NTETFBmOrgvExerhmn/M33GozsorwwJQo/7uK8OFQWdfOkbx8G4DfExTW4npFo5lS1YF7OZ5hiwTpMxYBxIFbULT07XIt7ieyds7PoGI15GMf74H/WxzW5DgQHQ6h2wRAQnkzAZ0oUjjU9JCQcA6zPDFvmlOhdL/fAnJzvBiKTKIlD7Erm+fGjrcG8psRzPEzuWqI0k1wu9Pf1n1RWlbN5H/jQy6NnhRcOAUGsvAg/hyB0L/pSZArtCb5Hv9fG4MWjmjlnZVwpF2KiX4xtGl46BMM1IFyDYnEALCIM5uaz1+riCwsLESFxLMzCuUoG1CnUMb5nXn4bidZeUoKZ4mEEm/tjfq4j00vUungNHPo/83Ac6inX43h+8x3zu25/a+AjcTjWDYfBc+I71qB9xDn8ML9r5/3cU/Vy2bN8eioKUyNB2M1CvHOZJ8Tv5eXliNgwOpPqCC9MTwpE2dnZGe2WSiCZw4Bcd3d3yRvF/8YFsDMgML6TwSAE5tEbxMtnTgkbIoMA3fVZj4zF8TKcdgD3AAFbz20+FWthbndrJYVzcQ4DCeWmwbo4l3sNseHMd0lnAfeq+5Vrm8nLWtkoZP4o6TG+R1PW2ZBYE/eg1NG9DENwHNJXqcS5vjfeYS53nBrmCGliEF68Dx7iUjKEWLTzYiEcv4OAkqWgSCBVEwgBo1x7Qb2eY5hjaGioRDRck+OVPKoT/FblsoJOgnG31O4xjZz1qrLJeMYw9BL5WwNZj5RGM9eAwDWCVem4HpJFaaINEeJ0EaUoBC5DmsULI1oa67VMcAyxXeE8XDNKm4+vkfTM+aMkknFgLFXR45PjCteVhpEaBoEwzDtSnXLXY3c3psHnELU7J7saRMfOycvieIgTtYYXB6EoZZIShfMgEgjavCfUMq6plJLxuA5zqNJxPOexXtZqLIHPTOqzvsK8qhDvslzTvCV+c57Ercqly5g5dEvLZJwvoXJ/fM7auIZMYcyF9bOWZM0HUkXPF4zjM/O56z3j+sliKDMC+J71Xb9+vSQVb9y4Ed1r7GrOZaurU2ODpIZBeCn9/f2l+mZ2JD1AELx6r0aqCX5IgsHBwegco80QP8egJkAU6uC6OCV+9XrzjrRxjH8kPTX8mHPEGiDkkZGRaE5jARKjNomuZoeqHb9Zn+5m5tI9zW+liN4k55XA+V5PHZ8xD3NyPEyrDcL/HC9h8z9Er33U1dUV/cBcBkeT58BAML3uZu081oIE8Rny7E1POT4+SVGiSYoYZGlpqWR8z83NlSQIL0v9mhcP8etJsRiIcw0Gzs7Olly1vHzOcZdn54Nw3J31VDG353KMxUYhjhJzrGkafKcbFSIPsf0k0SqxMNQ34oxdazA0oGU4vWIQr14ozuVz1CQ2Bq/vd+zmrk87wARJ1mWMQ4nkM1JS8Fx0NcPEMBRzo5q5JtbMc+L+eHb88D3XVgXVJW1WsX83NjQUtZ3SMFLDIKZU6L1xp5aIJEqYIQIoS0TKOcbjIUx3cebTHcz8SgTtC43jEHtrLl68WHLXahvoOXIn5ztjEKxJlEEDkFbaqVpJrHqYVJmYa2VlpWQ0G1vxXI5FTWROA4B62vjtTs+8Ohy032QkzkMiGgMyPYZjlMhKTOMZqlici62mY4RNi/VyT/yPKpmMvpsyky+c5atShO6eGgbRTlA9ME1Cj5XeIl4qO7NEzHcGDTlfF6kxDu0WPV7My/9WwvHC3dGtqLMMFUZLBslgBgjZHdtIMtfXxjEY6W/doqZpyLAQl14pjXX+Zi7VJpgHNUf3qoFD3bPcE8+C+zFWo/vb/yV47g+19cKFC6V0EtUkJYs2UNJpwMZizETHAM8RiSJzasxH7uaQqUoT9GhqGKSrq6towmBUWXd4WMpDUpdH5BsBh1hCTJx8pxpjRiqSBgI09QJC4nvOYz7+12vG4MXfS5UolOZXxQtx7pbEg7Qyem7txZ07d6LzIThjLFyf6zD0lnF/qHLWkJuCYjq8jgRdsNhXIVb1zBLQzjBjV08X3zMP96vXzhR5/uaZ3L17txS7EP+KuVmnafFmMZjsyHwyleqr7wo1TTXSdKCQGvZIUaCQl8Nu6cucmJgopYS4S6lK8UKVMJaY6sY0tcRkQwgRguKls4vqbTG4BRFAAKospqmj/2soY9hyrGAH6tvJ7FydB/39/aXINATMLm28QzvJQB/HmxVg2jn3CNFxnhuF4Aisi/uBOGFE01w01l0385lAqORkPmtUNPBVE1HHuIZr5tkJ6aOhrvrGPJzL+o33sDbjKpWVFSnCVUyRBOnr68sYsYZgp6enI0IPsWqjUZ4kClUaxL2SBgLhZfPSzX1iPl66sQp3Q3Rm60DM4FVlMzDJZ1euXCldWyNXlyufme3LdSL4zbhCj+tBqMzD9+60Mhifw2R6gIw9sCZtI+4B4teFCxN7vAxgtFsXtHEirifwA4xsJrHMoHrJc2DtELuuXs7nt1JG6cKxXhvpplua58WxR0e5ikIxPRxS+bAXcL/jQx/60DOFQuGjvGwIjJ3VKC1/s2sa6OJ7sZnM9NWbwktX7TEbVQkEI2hQG6020c7d1NoJ4yFW0clUJvpB5KxJb5lEp+GsNNBVm1wD62X3RUKZiKkhzvxch92YDUJ7xtQQVUJVUT4zYKr9xnX1fNmewPsIMRgE85sAyjPkefH5wMBAqa7dNHrjPFYjMo9qpFm+nAtDtbW2bl3541f+3tVbt1LBJamRILxwXogpFOxUpmrMz8+XvEAmL7J7qRrpmTLPiBeMrs3OzjAhMMTOAAOEppDwvaodxMD3ySo+EwCtnON6YkFZY8F87ND8lsmTKOgwkrUYSiMZnmtI4LqzPVYXMn8PDQ1FjMRzMjbBvEhNpWEyudFIv6ooz0MAOA1sVTHmVZVU0qneuRnABDCUjOWmpCdreHg4apNQTJGOlRoG4WGvrKxEvy1cMqjGTstvXgAvh5eIjszfMo2SxcQ9GMhYgKAIBuB0Vxok5G9262RuEWuAKCBmrgexsBObUp4stlLVUpXTFer6jF7r6YIpOVYpqTeMNTMf1zLOwDyW0PIMrP2wJsNCLG0diFh7RxWOv0Ncs6Ja6j2aLpKEG4U5BIJzDgOiySROjXIzjWFSC6fSMlLDILwEX5jp3yFGEoegq+O6cF6mKeYQkCoH57jrmQ5hTpH5Ubx0XuDIyEjJ88X8Ytfq2kxmrhq3UAq4W7pDcw0I0uOMsaiK6WpOqkfXrl0rqXp8r/sXtcsNgntWbTMT15oZDXalgNLOeA1qksTLugVjUHpyPV3I3ovxjhAHPpWUus05b3R0NPqeeWFwGNbNQtCH+vr6fJrS3VPDIDKGQTjLSXno7PpGgwUlwPiUcYyUiyYCMaCO6BoW2MxCJGMbGr4cr2tXtHPrvyESCAqpYGTZNBTVIQgSpjC6nczf4p6Y2yYzYtoaT7BM1l1adRF1R8Oda+rN00WbhOnxviBczuNv5rOOnufE2vVuWUnJs5qdnY3OQ43lPg1aqsrp+bIs2Vww/uY+DEgq2VZWlrP5crr7gx9C70voRqV5EejYvFBerNKBz0wvh0iSDKCUgYhVi9jpk8AFEpbGpkSNlOFzbQwJ79atWyUbyTp54xishfXyOdeESHUH6xbVO2bwUHVOCaERbcCQndtCr2QeGPMZaDToqVHOMSZQmncGA2hH8D/GtnlXdo1yE9AlLNoi69KjJeOY18Va2YCmp6dL592TfvWnVeVkxQc/UHswvtnteVkWT1n66m7J9xI+L4YXZFXhPT98ZWSfWCEIMephMS3E3dW0Dd2bJuhZo85nvnikhPlORpEh0suXL0cExGeioPAdDMq57MwQEuoTNpTBRxMvzcyNACjicmLuAyaDKEOstjGPEX4+V9fXSWFGs84MGAVmglHE8OU+YBg+U1ompa8FYwb9VHVZnzU2zC8iC+eoCusOrs9Wfm1qdjY1DJIai+mFF154prKy8qNGaCEwVS6jwdoMRqcNXhlb0MiEeZIVd6pRGpo2gOEzM3GNwBt008C2UEq1xFwnpQWEy/WQIiGuqTAQaZmtCYkyBte1pJa5WJeJhdwTxC1zKwG1KUxZMZvZtalamrPG36zJaL+MlJTSunBRV61pcWMyIGtio7Ee01p0iOgRRHrlj4/vfumLX/wzv/6J39p/yOR03yM1EoQXwwv1hWv8ClIgcYtoYmqFurhYWCKS8BKXlpZK5bHWpyc9XxwHEWgk67ZFZzeLlblV0bQzVGvU1WXYZL26HiAln+5pVcKopXJjY0TIulrNOUPS6JZmzRxvrYrAEsnWBrZNM29LJncuriMgnh437kdUFEHxLE3mWQhmJy4v67F2JsSpOdpCEaMeHf7Ov/yNX3/v3/mH/2j5oRLSGxypkSAf/ehHn+nq6vqoTCBcDirV8vJyaQfjJak+CcPJy9MtarqJwToZiRfrseLIcj5MaaUiuy3XMMU86cWCCOzIpF2SVKlUP1BhbK6fTLBU+hnbkfgkaJlPz5FpMrqnYXCdEMwv9GkSKtR0DzN1uQfuz51fCSmxM6drdJMw6VAG9BkYILRMWQasyoT5uzdv/Lf/6y/84s9/6cXfT43kcKSGQX7mZ37mmbOzs4/yotjNTD7kbwN3oveJks4LtliHXT/EpbuqMqa7C7sjpJAVd7qVrRlxNzQxkc/ddc0QFtlDZjEKDSFx3XPnzpWCijKJDKChrvFtwI11mMrumpCSELFGvenzAizwndLKAKYR+BCnqPCjreBmIUCdNoUZA7qndUWrIlrq7H3IJOvLS6EuhP/ll/7Z//0T/+Sf/bNvbO3spMbuSI7UMMhf+kt/6Zmtra2IQYwGm7Hqrqlb1UBa8uWaCnHz5s1SCocZshCJOLPWZ0AwMJU6tzq6sRUj4hIKRCF4mxWJBt30CAmzY8oL0oFrS9jJ1HyOsU5DFyk/7uwytTaTEpPrmp0soILFWDIHx3KO+VwyEWscHBwseQS1z3Rts06uJ3MbrLWFWyaEsDY7E17+/O+GL33iN8PXPv/5d1eFUFXIVn91Z28v/1AJ6NscqWGQj33sY88Ui8WPKh18+fxYrad6Yk06v02DWFhYiDxNGtjudMZJzDHSJmAuGMld0WQ+uzFJuDKhDKNkEbYHQsaeEPEkmcmrp4o5vadkDUWId3qO0xPHd2NjY6WYg8zphmEUPQm0p8oXYtsgxIFX7zVZCWjmrRkEerE05GEOEyuj3ufNzWH61s3w6pe/FL70m78Zvvo7nw7Ls7P3pGChkD3e2/2+iaHBP1nT0PDbK5tbew+RhL6tkZqAzcc//vGf7e3t/YemcRvNZsebnp4uoWaoSlg3YYo3u5zAaaZNKEEwSNX1GdaoC9GpZILwTD8xyU91L8TEZdqGQT3jMa5Lr0+ynh7mVLKo+nA/ZhuzZqSZ7QgMYJoqs7i4WLJHTPU3YAgRQ9AhZjaNa1P8VQ2tsLRAKglK7f2r1u1sb4fcznaYuvJquPH1b0Tq1H9stLS33z1t7/j+f/sHX5t/UwnlAY/U1INMTExERGn6dU9PT/TDi7Zxi8avgS53YXbPubm5Evq6eVWmRJg2kkQxCbH6YmQ4xP36ZCQICyLiuqKCKLnEzPIYiFvCNX4i2rsZtXrEhDrlvmQSC6NgUOZSGiltlDLCe/J83PHdBExZEQRCz5lBT2NEbCT8np2dLTEOx7e3tISXX3wxzN68HqauXAlbcanB/Y6dzc1zHTU1/+ryxMRz127dOn0TSORNGalhkCtXrpRaEQjPnwzUqToY90Cq2HdP41ZbgGP4Pwk3qjvWvCVzjbQJIGTVN1UdOzBpx1ilmIwucy0LoIwR6Hmzuk8sK+bTBjIln3lMCOT+kSJJFEiewfDwcHTvHGPyovfG8aqbxmkMgiqN3GgEnWOe7q7OsDo3Hxbu3A4zN26EmVs3Qy4+/tsd64uL33Ppscd/+tqtW7/ywAjjTR6pYRBeGsyRNCytC5mamopUhxAXT0H8HGuaSIgDdNZ7IGlEbzfiLviCerZgarqMrZYTa1b3p94mcXK1T5BSSgBjAjaqEXyNc7i+kDwcNzMzUwqAek8wLkTM+lyTNobOAAN6SaAIriFAHQzAfDCBrmxtGFS0Cuys9bVw9dbtsDozFWZv3QrbMZaY4ztFI+H8zYX5P9vd0f4rqxub39Fcb9VIDYOYdWqGKcR29erVUo88U6yTOU2cI/H19fVFxJ3sBGVyXrJNmS0I7ABrfhZjfn4+IrzR0dFSgI5rsoPrXTJFg3PEspXBjL1YnmvKvK5nVTsBIyzhxYZI9vvQIWG9uLllSfuE58L1lZZsGEi4Us1+bW2YvHkzLE9PhY35uXD36tWIISwue7PG8cFB/5NPPR0++7nPvWnXeJAjNQwS4qixKSMQI4QkcRn800OkN4ljOM8MXZMRrfO21sKMXHZZc7Ws+dbItkbEiL5IKTCO0kHIHRgZptRGEmDbHhoigxTjtgK6klW1DPq5ZhtwJr112iem63sMmwIM4X1EQHD7+yG/sx2+8HufD3vra2H61q1wGLtyk+PNxqyqzmYrBJpIw0gNg3S0d4Sj3FGJOPTBm+EqqLU5QOLmwhymkyTLQVVRBFy2L6AgC0oijVh3aufn+hrlullD7EYVd0o1zYi/TgY9RQYaIWQzd0WDFCqUz/XciZDo37qRdQ+rytVUVoYrX/uDsLYwH7ZXVsLktWthY2Xl32OGt3pw/Wc/+MEwdXjwUNfxRkZqGGR7Z7sUdNPjI9Hq+WGwg/K31X4cYwq2nh3hO40dJPt/GITjWFQSCJUfq+GscRdkDUKF+CVu1CEYwZ2+q6srOs5KQl2rpown0eaRNuL6CrYgZlUSMZ3f3OdxLhfOjnNhc242XJ+dDStzs2F1bi7yMOVP316OIu5n4sknw7s+8rGw+qlPPezl3PdIDYNsbW1lLDkNiaxYVQIZB4NWFUusWog0xG5b0dfNSbJizkYzppZoTxgETCIuClZgFFxmFUjBRjnOaUTdLFddqnqiBNo2VSVpa/X09oaT4+OwPD8f5qenw/HuTsQIG0tL0c9OXE34dobz5Jk/9vzz4X0//KPh4PAw87Al2RsZqWGQ6litQjKY+i1ihtA4SbWHvxcWFko11ckIszUXulchRoODdqWVqI20Q+yinTsXO74ZvtglyfJe5jXmYCAy2RTHNVtcFJXdHhyE+pqacLi7G6Zv3ghnR4fh9yanwtLcbNiDieKg5WvH25Y5isXQOzwcPvKTPx1qOzpC/uwstLe1pYc70sQgubhMVHADCNKU9GQSHTu/NRFmsibB4yBa0y/Mr/K4JNo6v22EA/Gq9tjxKRN31s3E3WCNQZhl7PnJrrP34hh94WBvLxxtb4fZycnItbq3uRU2FhfC+spK2NvZidSjVDHCawbPqW94OHzwT/9Y6Bwdi9rZivd7z5HysFd4/yM1DNLe3l60DYGo6HqwIER7/Zm8ByFjgKv/J6vikunkeqPEnzJFRLexQAdWCYpeIpCzRVUy3d7+fmhraQlL8/OhplAId2/diuyEpempsLm6Gva3t8PO5mZkP4RvQfRpYYTXjsqqqjB+6XJ49L3vDSOXL4dsdU0Jsd7qz0hlPco97KXe90gNg3S0t2dCHAMQGEFQBrFgbWfAi0DC6FYVCshcItNKBLO2K5XwQNabm9MlWrnFS0eHh6E2m41sgK35uTA/ORm21tfCaS4X9jc2wtrKSjhE8sSG8juJCf5Do727Ozz1/veHoUuXQ2t3TzhiI6vKlhIg3aDivLaiBWRpGKlhkMampqKtDcTZVZ+3wSffQ9gwh/0BzcDt7u6OPre8VS+TyYVGwA/290NrY0NYmp0J26urYXdrKxzs7ISd9fVwsLcbtlZW7rU/iysUX89AficxwWtHc1tbePy558LQpUth6PxEaG5tjWyyXBwLEm5URwnPIlKFM5liU+y8SMNIDYOsr61l9CrpsjU/yvoNA226Y1GDeDkcuzAzHfp6e6No8d7GelhdXQuF3GHY3t6J/s8d5aLfnHMUY/Tez3gnM0Fp8CywuXp6wsQTT4ZzTz0VWnp6Q1tsY9XG2QI6TyzpFctrcHCwVJ/S3NSUaY0zBtIwUsMgR3t7WxsHB2FrbTXwgOdjvKbGpqawsrgYjg/2o9z9CN1vZSVSb44Oj8LR7k44OT2NJEF53P+I6vKz2TA4Ph4uv+c9oXNoJHQPDUWfIZFRYwXXQ9W1ZJjPUHWR5G5gwjJFUj+bjTKF0zJSwyB/8Wd/9p9//1NPtmxM3v2fc4eHbd8VO/dbOCJVsaIitHd2hvNPPBH6x8+F0UuXQ0Nraym935JkvXkyQ1Kaq1LptUK1hSFM9Ve6pGWkhkG2d3eLv/XFL/3jwd7eX3v2iSf/4tKtm3/+NJcbLTPKtzmK9yCksSX6R0fD+GOPh8ELE6GitjacxY03k3i82lqCOph+Y05biJnMuhiNcuNN4g+fFQqZzs6Oh3339z1SwyCO+eXlzfnl5b85NDj4C10dnR/qrKn5z3dXVz52ls83lpnlW497GcZVobmtNQxfmAhjGNcXL4bqhsZwEpf/6m3q6OgoNScKcamBCDHNzc2RtEByYH/YHsLYD+ceHh6W4JXs9rsS54K1tLQU19fLXqw3fczNz5/MhfCpEMKnnrh8uel8X++fym9v//ja/NwL+dPTpu92ZolqXBoawsDYWOgaHAxDFyZC//h4OAuZKHBnz5MQ53UtLS2VUOpNixF0WnWKYTWiDCTKiyW5Ir4IDWtTImNNMk9aRmoZJDleuXZt75Vr1341hPCrj168WN/f2vLBiuPjjx1tbHzs6GB/6LuBWeoaGkLPwGAYGB8Pbb29YeyRS+GssjI0xQmSPANT7wsxuB2qj2k2Fo0hGWz/JgifGQJmQJvNLHAf0qGvr6+EnG8psEmWNveJg7TF27dvP+zHdd/jHcEgyXH15s3DqyF8MoTwycGB/srxcxceqTg++sGWqqoPbywvv/fk+LjuYa/xOxkQWUdXV+gdGQl9IyNhYPxcaOroCPlMJlRm72UPJJubQpxIB/4+d+5cqa7eykkTJCFgC8ZgBAiev03atAGPafrmp4l4Ilg1DGY1pUmerEeE+qhFRDb7sB/jfY93HIMkx/zC4tn8wuJV+Ka9o+Nvj/T11Q52tH+gsary+3dX115YX156ulgovC2fAUTa1tkZxR46+vpCW3dP6BkaCgOjY2E/lwun+XzEDIuLi6Gyri40xFWRAlqr1tgI1M69yTZzwpfCKHaqNXkSBjBVRyggjtcGMUBrjhtzd3Z2lpI8RZbneoODg6UafJitMcbnSsN4WxLHmzE2Nzb4yb0UwmdCCJ/p6+3973u6utuy+fzzLfX1H2jKZl9YnJp8rFAo1LzZKplByCgroLY2dHZ3hZauntDS1RVaOjtCV19/aO7sCi3t7ZHrFQKcnp6+VwhWLEYBOgHcRFnkfzMIDNglm/nYi4S/h4aGInVLGFEzj22QKk4vxwifxDlIIlvH2ZINFW12djbC6uJ4zsemsbdJMu9NLABrd9Iw3vnK+RsYTz3xRPPJ7s67+9ra3ttUVfX9q3Oz786fnLR8O+mnMkF1TXVoaGwO9U2NobN/IDS2tYWBkZHQ0dsbDk5PQ0dXd6iIu1uxI1shCQHaf0Rjmd0bIoRZhoeHoxiDQNXW2BvJFuTBAivOs7BLmB9RU8xts9bGCkXBKMQtFkHfniVIDN254oXBIFeuXIk8V8nSZwvK8qen1/+3X/iFy6+88soDf39vxigzyOuMvr6+bEdDw+MVJ8fPDXR2vPfs4OA9u5ub42dnZ5HkjUp/s9nQ1t0dampqQ3tvb2hqbQ31TU2hpbs7tLS1heaOjlDf2BS2IbS4/cDc3FwUZ0BX10BW5dE1arsBUUjU53WrWsBlVaXfuS5xsqampiLGEM4HZrC/oFWU29vbpTYKts8WrcVYh63dLDQTVkhYIw15VCn+59oa8SGu+UfdKxaL13/pl37p8pe//OWH+3Lvc3zXqFhvdDz1+OOVe3t7nd1DQ+u12aqrA8MjSyMDA189f+H8h5fm53+otbk5VDc2RgzS0dkVFpeWSkBrgtahTmzu7IaW9o5oJ3IXtv9IiDNdRU+EoCBmUdVFlbd6UUJeWVmJVB6OtwRY2yHEAN0a6v39/aXGmhCtOMDaGwb3BI1QFYpgRVtaomvZy9F6eIN+FnpZV2PeGwPbSOBwA45e16Y6aRjveAaBoHraWluOTk7b+gYHKzqamtrzxWJ3XWNj/Uh/X+tB7nho4uLFmtaGhqaK2trxnvb29r2jw+G6+obq9bW11s6urgpVF7N/hy9MlAi8sqoqLMVIhiI8imfLtVWdbKxjo0/VD+tQxBqGCEWc528B6CRMiBXdX+hU0RE5xmY+Qh1Z/cgaRGPhHqyBMcM2GSVPRs+5nvXytnkTFkmAPdu9iQlmjQ3HGhMRqkjbYzVG2k/DSA2D/Mov//L7X3r55R8uFouZxx9/PHN6cpKpCsWahrr6+tt37gxlqquLEPPIyEhFxVm++TSfb6qub+jK5/OZwlmh5ih3VMuLEszappfGAkydL1RWhpC5V4rb1d0dqUHshBqdtjTQ3SmhaXyqEmHo7iVgdUSbv3nzZqljlAE5Vask0IPwqDassd0DO7ug2TKYBCrzcT7EKeAD56BqwVjMb58U7xliFpbUuhnvyf6O4gqH2EYRa1j7wnUJcWrPEDcHURvt5pWWkRoGmZiYeDpkMj9nNyM7OUFYE489VuqboccmgsuJvTCoChKDsEFWAsIIGLyqObOzs9HODxOx82rEqtfzmaqNINR2cdVzZJMee4RwjhWNEGmUUh+rHLpC1entpMVaBIYTbV7D2mvDRMKU2qo5xAQskLUSBVXLXV8VULUNhuK3dkSI00s4jmvYbAfpFWKkR7vz2t7NGntBsDl+cnKyBIKtlNrd3S0WyqAND340NjSUwA8kkmQTfVMjeFHWgttBVoxdE+nsYR5ib5N9+jQ6k7ugANQWa0EQIpGIsVVK24hdtxqmEqzwo6oadp8ysh1iIzap+sjkCwsLJaPXzlru5EkJEmLGkNGUUHw/MjISnWvulNBHAn5jWAvArSpp2bFIjHNzcyVPFxI1qqw8OiqBUZg+4ubAdS9duhT9L66wfdmNv6RhpKZHYf7sLGM/cWFIeVEQhw1reMEco3iXMPNxUA1Cl1lER+R/GEm0RcHl+DGwBlMwr0VZdmTiB2OZeZUg7rjJ2ngB4jSKQ4wSKUiEIBReU6BpCI/rJWvv7ScoHKqGr9JOBrBblGkeSr1z585Fa/F85hLMQrVN/C0Zj3mcn8/YLOxsOzAwEK1LUAvWJ8oL1+Seuru7o+vIfGlK/UkNg2SzVUWJzwhxElXRF6ZP3+PExkV1YqdM4t3aFoDPbRpjhFgVQg+NWFrz8/OlHZT/JT675j7yyCOl3Vc7RXXQGAR/25yGuWBuPTsCQqgmCaotw9tKwVYJestu3LgRSRulqNi/upF1xyK1ZmZmoufHtW3tJkNx7zojBKqwxRp/wwzmV8HkEL4IMWII8zcbEmuwMxbPiufJTzFG4k/DSA2DnJyclvJ+lBAijgjUIKQnLxhd31oFWz/z4kzNtkmNqg+EoV3AZ3aM4qXbdjkJ38PnMJatCTSM7TWi3u0uaocoCMfoNkQDgYnTK16WUkfvlt9B1BCrwUAGqhHXRo2yWSnfJ5FXbBmnvcCxouIzrzheton2/nme7vgytynwtp3gM0ugxUz2HXHPRtNZpz3p02OBpIhBeLjsXhCldobI6zaRsRQUwosg/RNAbuLsQhR8bgsAmUZVRlvFRjom4Ak4pwrGtUz0Y052dplPYGl9/hx/9+7daC3JFBDn4rderxATX7Ifu8Sqo4D7sy8J52Af2GNQ+0IPmtJUvd+qQFusMUwp4bdBwBDbUF5fTxX3yf0Kko2KqZS+evVqyabSsHfj4X2wefDeBMpIw0gNg5yd5TO8hP7+/oi4eNi8DHZK26i5e+rd0fBlF9fgHh8fL+UeaczbQ13YHwlHw5/rDQ4ORtfkb5vuyJijo6OlXVNbRlcma1ZaQJSTk5MlEGx7CMoYxhns26E0Yi4dDiE26FVt7ICrUa9nzcY7epa0t/TEadCH2AVtjxHTTyytNbCpw4HnAHPw3IRE4j447+LFi9Hnurw93x7wXrOyMjVklx4Gqa6qiiw7uyO5o/F/iBvn8L/Eia6LSmIATntFItYARg/nhXrOnTt3SiAEGuhcA8llYh8ExrFCiap2marB+f42T2l6ejpibgxWpIpojskgmyqQKo5xgyTcqfjAxluYj03CunD0/mRLCNZq8qGSw+ad2jTMb0avaS9Cqxrc47qsW9R8+7PbdVhppopmCouZwT6rex7Esg3ywEcxZKJCG4mJXcyosD0BbVbJS+VF8EKTvfrMXoUJDKDxYm1jzN8TExMR0XEcL9WotW3a2AlN41CvN2/J/usauKItct65c+dKnipUFCWgapuBPQOGlrAKaeTfzA/jG+NAdbPeAinD56gzxjq0tTjGubm2zMi96xUUPd8iKp6xrRZ0H8M0MJzA3eZoqVJ5vnEX+7ZwjtWFhbKR/uBH/uQkY9VaiGMLyVbKEJuFQL5oXgjEYpmn6RTnz5//9yLBECHEg6RwF2VHtmgI4ltYWIh+OE9nAISike/u7//MZ290DVWIVrewyIMcy/wyOyoix2oTJdsk6C3iPliXcZWlpaVSjEYmYF7mhGA1zhlKP78TZFvPoPaKwUNVPz5nnSY7qj5J9OZ3WW1oHIbPBXIwFywtIzUMkqmoiBRmc6D0/Gh72COQF8JLUJ2wlNQe5rw0e/hBECGu0jNIx7m6RyEMdn0MUY6HQSEOYy56ZjhXoGtdphChalqI4w0yC8STbNeszaE9YWTe9AzVGdbLufy2Hhzim5+fLz0LYzYQr6oTUsIouhuKWQScI1ql2Lm2f0OSchybjN229LRxn1yDe7b5kF4s5uQzU2dCHMRkPtbKu0rLSA2DnBXOMgbneInWQfAiMXx5QdoIDAjZFA89XBA2BAZhm9+ka9ZjNLxVozxOInUH5DNdnMZeQmzEQhTJDrWcB5NhhxgPYC0ykvaGzKaaAmGyDq7J9VkrRAbBGyzkvmHcZF9z74Pv7L/IZ6hHpuIIBG66ju2oBQLXg8c9wNis25Jdi6l49hrx9o2MALxjptR4931x7UuXLqUqmzc1DFJXV1+0jNRsUkW/RIvBqceKF2nOkLlLw8PDJbes6dq8QCvgbMQZ4pRx1BalgKkV165dK0kv5lA94njTRzRQsQ80hPX2JCPKnKtLmevavVapwrrsaQLj8T07s9F/VUauxee6pJUUrNMYiDEUrodRb16armFT3cW7UqoZJLXxaIhdxWw+rk1JY19FrmsjIdtpu6mowqZlpIZBstmq6Klq1PIyeME9PT2lpDlVBgOEGp+6PyFUmIljzEPSA2NCo14jXbMGuyAqftgBlQwQpKqSKd4QIXOxq9ujhP91URszMIbC92NjY6U0EYN8psio/sFcuoNhCOF4WGdyE4CQ+VxPVbLtwOjoaAnaRxtICQOzIuUEiVPCmbbv0EVubIY59NbxTF2r2cBJG0W1MU0jNQwyNzNb5Y6Y7GducEv9nh2al4c6YwtkPSzGA2QkAZUhHoxvVQuDfVbK2dvceg2r+yBCjWnXc/v27VJLtYYYnMCsXmFxTAKU6JFUSaR41sFnEpnGuPdhrpV5Yf5t1J1nYdIl9896uF+za5NlutpoHm+qiE2BlAzeL8eZ0cD9iW6iOsf1kdRsENqCSSOe3yaKpmGkhkHam5sypoxLIGI1hdgINvUbwmJXNl0EAoABrLO2TbNlpqgD4+Pjpd6Eul2TlXhizmp06i3jGNQGaykguhA7E6wWtP7DoJ9lrMLoaOxqwNv1ymxdoXxsEGpcBLUJqWSyZrJ81+fE30lsXW2cZCZAsn22Q5cwazGeYbs6EyB5blyfz2R+Ex+Nzhsg1fVunXtaRmoYJISQ4UUbozBYpluVl53MYbI6znwkIWmMh1gXAuGYMs98vFBtCwjKQGTSI8OLNqptrpPFUp5vpNyERetEDF7yA3OZBWt6fbJTlmBrEJtluiZZsl5B3gzihTgFXiPdUlzbY3MtGFA1SNVKcIcQt54zzYW/kWR65DiH61u6a6yG6yFJjfYzp9fnh/N1WXMex6ZlpIlBitZZJL1G6toW7UBQErxEbc6TzXQMhCUJBeKBEJnPmgZeJnNrTLv7mrputq+xCPV3CUFmVSXUttBV7VwWJplbBrPYmZe/kSDWXiiJkkmDppubVcycgiR47yKSGJNhfdyvwTzmg/CRXNo+3MvAwEDJNmMOpQnzYtPwOZuWbl7W4lzmnPncuDZrKqtYb8Koq6sr8uAhJL0gvGCIzl1R/RyC5kVDNBCXuzEvlePVlbUTNPjtYy5IgQBr5iJZmmqqhSqTO64qhmW81kZALKiAfGb0nPPZjY2Mm1XLPBxroM2/WRuEaOQ62Wddw1xJFYFFbG5GG0WyvsNqRv7ne1PX7QCFqriT6JzFtXRlm+IiODUqq3lXdghm/eJtMT/XUlIjiYy5uLmlYaRmpQcHBxleAsTKi2cns9Q0WQoqsdj7HIZSxTKoFuKdV1UN9YQXLwiC6ewygERsrpN16nbUNW7B0KhXRbGAC+JMBhWTZbFWEZo6b2o+69NOgZmNdHPfNq9Rp1cqmVpj0JANImlsK3k4Tleza75w4UIpwh5BnHZ0lOpFTF1xU/EekgASShZzubRfjJFYHmA2RBpGahhEf/vKykpEsCbWuTtpDEOQFidBIOyQdqe1ZbNJhYKzmchoGzENUK4JIegBs5zWuEFI6PwCQjC/VX/8tnCJ/w0gqiq5w4Y469fdmPvRc2SyoBFqjW6YCkaywpJ12XaOtUKY2lDmqinhGKKV+LxMNXFj0YZi6IK2+an5Z1ZmyhAWmVlw5edJey8Twll9ueT2wY98Pl/Bbqc+rseIh25SIt/z465u2keIGczsU2uoIVqIQJ+/dRl6kCQY8aq0ETRuVbO0dzjOAi7VIYhGg1UHgflJQ0NDJW+TkorvIHzO53+RSKytCHGgTlVybm6u5NXShev9s36JNQkqYW26/UC4lvfEcZzPsTL/7du3S884KniKPWVuEqp5s7OzpYREA6mm1ptBkNvd+cy//be/91Bp6Y2M1DDIweFhhSDJujz1EkFUqE7WbCs1lA4h3ulDHGRL1pkbJGQeiVl7A+IV0vPu3bsR4aJjQ3jupibs6bo1jsF6ZCYNfAEXdCdDeMYf9MrxOdfgfNNDTD4UTZ3jNMD5WzAEgeXMpIVhdADIxD4zkVKYw3p1s4IttRW8TvVJ4pfo9SBaiamNpv1nNF9VLpyefuGf/4t/8dc3t7YfMjXd/6h82Au43/Hnf/qnv3d1a/uFJPqIqk2I3bDWYAjuwAs1+KWRaWRXhBErClFrjBNggCIJdAaoj6NOYHton6i6mewnjI+M47X9PsRFWAImmCqT3OX1ODEMtDEgdiPpyexfPVY6IjTSYRaj1qqEfKfh770ayJN5eBYa6EoKN5IQZwKH2L3NMzarVwZKBjWN9ldWVqKv/fLf+Ft/66d//2tfS48BkiYJUltTc2YtiLivIRbvvASDZAIKmPkaYpVEFBGjwSYRhti4t4YdIjp37lwpPcT6cQhuYGAgOt40cQjV3CmZUaZV7+ZYmUZjWAaxcMue7iZIhhiOKOkFMgNZt6y4t9a9a1OZ0mGcQpe1mb1cZ3h4uBQ4VPUyOo6apGRR7ZRprTTkWXoveuX0Iup9i5Mvi0319b/zqd/6xAt/+ed//i9cvXHj6CGRz7c9UsMgOzs7VWa2QojGP0yV0KA0/YGdTj0aFQPVw8xTA2jWJaiX69LlN0Sgbo7dw/dImSQBJ+vaNboNqEHI7vTJ8lnrLfTq8GPSoB6ipIGsV8laDGMqGuPmb5m+niwFNknQoGYSwBpiZxMx1qMTQ+cHmwY/IfbMiZSip4rjjJprq8DE58+fv3eNzY2wPj313/yVn/u5H/inv/prX+IdpHGkRsX62f/6L7z39vT0h81UNcfK3dN6Z+ur1Y81GGUK1YZkLpIgD0gR5lLamPqhGgcR6FpWvVHH5rcRZ+s8jGArmfQYWTcCY7+WoSVoCNCAKOu2JRrnJ+MvJlW6FtFdrEdXvfOaStyQqIPRpoDYdaGbx2Zdvuk3Bg1hfjtN6RGrDMUwe+1q+MKv/7/hc7/x6+Ha1//ww49dutS0e5z74vbubnqig4mRGgb5L37qp95frMq+oEGty9KXnkm0I3Y3FmZTGE0/82WrHohgDsHpIjb3yPgBx0JIXBP1CgJmLnZGo9TOq1qmG1rYUKWeQA0GzKoT3WS1i5R0lrGKzes8qj4yAISONEJSWkhlLIb78n5srmkMxi5RtlowzmPLBe7T7wz0JRHgmxsbw+SVV8Mffe6z4bO/9qvhpS9/KWzF0qJYKFSuLyy8r6ex8QcvP/09n7w9NbX3EEno2xqpqX2sra0tVFUdlICUlQy6P034M2HRnTbZ2cjd2si07YytoMPGkOEgNiQKxxqYU72xchEiQv0yaKlqgo5vkE9mNSptNFu3tAaueU4mWLIe1gijWILLmjjGdBLtKeZ1MzAwJzMkm2i6IcgA1tLo0WOjcN26yZWAPEvLc2uqKsPM1Svh7h+/HKavXw+726/vldrf2nqqprr6Kx9633vf97mvvLjwlhHNAxipwYD84qd++6+uHhz+bcGek8EsiVNjU4+SkWNTMiBI7AoDdSJ7QORWvDEvhGLdd4iNfPF/NYyNYou0bj6XyB8Qs40sWZ9xA7GAWYfGuiktpsAna97FvFVa3LlzJ3LjWrEIQ4yPj5dynEz7UGXTy8bxIq8kUV2UsEo9VSsbekbrb2wMhzs7Yeb6tTB9/Vq4e+VKyCU8iPc7ugcHv3p7/+D9N+9OpkbdSo0EOSsUolSTkZGRKDhmKae1GLys+fn5b+pdoXclxJFqkdN7e3tLoAocy7wcC1Elff8W+GiIGniUQSzcYl5TVLRPYDqIVtetXjFr20MC1FoIUxMok+noGt4CS5gEaZ09xA1DG+SDMUPsRNClrNt4dHQ0gh2145RVl3qpvJ/IBstWhc3FxTB97VqYvHolrC4slOy6EDPsGx0rc3PPnbsw8aM3707+xgMkjTd1pIZBarPZSnZidl9LU41DmFYtCjoGN98JKicThTj2oK5vbQXEbJzEnVRpkezzl6x30PMzMTER7eoSt6BuHMf1df2ac8V3qHVKNR0H7vKsb3V1NdL39W7xt5JFR4IBUqSJCZbWhaDicW8272E+a8VVRVmH57a1t4f97e2wu7Yabrz0UlidnQnzd++G40TXqvBtMkVyRFLw9OQn+np7f2MpZuS3+0gNg+RPT7JC+7jDu1sjEVRfIAIIEAIxaCVDWOBk2rwuYz4zCRAGhLBEKHQ3t5YbArQQanBwMKrS09tj6atNLw3OWX9iWoct1qyRMAZhaoiMbxq/iIdCEWlLyVhLS0sRsZtk6I9JiiKlyJSRE6Dynh2xOjMTZm7dDMuzc+Ho8OCBMsR/aGwuLT22v7n1wOd9s0ZqGKQYQh7JIDgcxIQObsksBCnzhDhbVeJCBRKGxgxeqwSTJavmSIl8ogrD3DAdu+7Y2FiEpG5Kt1A9XIfvNeBt0mmGrt4fYzgyDiqRjGsBlB43jXHzwVSXuGdURSSf12SNMLKOBp4JkgPGyRQLYXd9M+ytroQ/+vRvh6WpqbC6uBjyscfO8Va0JWhrbCi0nebD3vrGm36tBzFSwyDbW1s1pkwYvUaVQKfWzStgQ0hUAFrJF2ICEHmD71SFlDTs7kaoxYUyI9USWiSGqhtEaMsFYXtUbVgXTMIur+tYF7G2DkwxNDRUijto1xjbMZgI0ZtRK2LLhQsXSkxkHIaxtLgQjvf2w976WliZnQ0vTk+HtaXFcHhwEEKx8E1+mbeCIZKDZ/G9f+Y/zVS8+mqY/df/+i299rc7UsMgnZ1dpxX5s5L+LVKHWa22K+MziYZj2OX16IQY6V11TOljpi07vvXbNrM0oKgNIMHDjAKqJY9JglXrBbKCzhoMAarN1eKazKeTgXnPnz8frefcuXMRU5k+j9RApdrf2ws7m5shG4rh9tUrYX9jM8zeuR22VlfDUZxi8++Ph+i0LBbDsx/+cOi7eDFTTEmP9JAmBtnd262uaGgqpYX7o3ph/pAZpxAghAZB6YUyQj03NxepM6o++vxDbMRrgOsls2lNEgdYAAfnNtXdclxTToy8a/BbGKXBnASp1hlgNNs1nB4fh3ByHF598ZWwu74WDre2wsLMdMQgp7Er+u08qmtrwwd+6IfDsz/wkVL6T1pGahikq7PrZOUo901+fesQIGp9/6g86N5iTom9awYwOzFqjVV4yY6rVu2FWP0wfoGqNDs7WwKIMzGQz12L0XKzW0VBV2IYmDPV3SCguVxHSJ3a2rCxuBCmb94M2RDC1K1b4XdWlsPB9nYkMd5qleg7HplMOPfoY+H5H/zB0NjRWYpbmRmchpEaBjk42K/c3T8sEbVABTxsQa3Z6ZEG2Ag2nOR7I8NCZSptDPqZccv/ulRNIzEdQxAFmcNIurUhXEObxuRFg5f2PM9iJ5ydhWyxGJYn74b5qamwubwUNpaWQm5/P2xvbHzLAFyamCMCdHjkUvjAD/9IGJqYCHtxhoP9VdIE2pAaBjk+OspC+BCt/n4j5hCpBT8wC7s9v03+W1hYiKQBkkYYUQxpYUZhCIha+0PANXOPzNtKpp9bY2JUmjVEcQ0IvFAIG8tLYWdrK+R2d8Pm8nJYXVwIu5ubYX15+Z7dE0u21440MUJyRFnVjY3h8nveE57/kx8JmbjVxE4MAcSzMp2lzCBvwjg+ztWFuPWaDGKuEUwj3hIvChXKJEKOsaeHNd8hdhNbqWcPCwuFQvzCbT7DHByP+lbPi6+sDGtLS+FgbyesLyyG/Z2dcHp0GJZnZ8Pe7m7YjUp5j+91NfkWBJ9WRnjtQDIMXbgQHnv2uTD4yKVQrKwMtc3NJShYSxTMnRsfHy+9gzSM1DBIX3//1o2l1RJeFQ8eG4Ad3cgxu7k15fyIXSV4gzUSSgsNZm0YSDafy4WdtdWwc3oabn/jG+H4YD8szc2F/PFx9HnUc29/P5zGvQy/NQOENKW6vaEBU/QOD4fHnns+DF+6HOpaWko5aHoG9Rxa3CbIHw9FoIo0jNQwyOb6RqNxEHclA4fYFn4e4oo/0QdrsAcw0tfXw9biYthD58eIPz4OG2ur4SyXC2urq5EqhCGcOzwMZ4VC1Kr4Ho1/ayJ/p0iB+xlV2WwYu/hIGH300XDuiSdCXXNLOEogVi4vL5fgfUSHMUhqaW5smxVN0kzDSA2D7B3lJhdmZu6lV1RVhf2Dg3B6sB/u5I6jppCbm1thb2M9VGYygX1qa3k55POn4eDgMOQOD6JQ/BuB3f9uIv5vNZpbW8PII4+E7tGxcPGpp0Nj3BK7s38gUjnZnFRvYQLz1UwCNZ8t2Tl4ZmYmlCXImzD+yv/4P/1fT46OFPfn5/7G7vZ2T5mAH+yIiruqq0PP0FAYnrgYRi4/GvrHRkNXT28pfrO0tFRykWMLJgvTkBgwj2gzBkutTbHtw+XLl8OLL774sG/3vkfqqOzCufGGnrq6P99akfkLqwsLlx72etI6lMSDI6Nh6OJE6B0dCz2jo6G9u6dUYAWxY5uFuCaGn+np6VIDHpvvcIxVlWYlmKhpMNZis2w2e+3jH//4o5/5zGce9iO4r5EaCeK4fXfy4HYIf7+lpeUfPnXx4vuLO9s/XTzY/4nc4WFLWap86xFlF9TVhc7+/jB++dHQ1tcXzj/6WAhVVZF9EeL6lJs3b0bpLckYj5FvJAQSxHbPxpEMyNoiAgayXl5gbOGIMN7LkfS3YOzs7BS+8LWvfTGE8MXO9va//MjwyIebM5kf3Vtb/Uju8LD7u5lZlA5tnZ1hYPxcGDp/PnQODIS+0bEQYkKN0Obj6kqIW/A7A6ICV0DQptNjgM/Pz0epMIuLi6V6F4uz+L6vr68E6GBKv71TIpCNvb2ToxRh86aWQZJjfXPz8Mubm/8qhPCvLpw/X9Pa3PJMV0PDD53t7/3A5traYyFFPfHe6JAZWjs6wsDYeBgYHwuZ2rpw8fHHQ3V9QxTFFuzBDGUzAcyERhIgLQYGBkrpNdbG29tDoAjTa2xUZKsDjhUIG6Pd+ngRZ2y+2tPVuTs9NfmwH9t9j3cEgyTH7Tt3jkMIX+KntbX1rw51d432tbZ+sK2m+k/N3bnzvtPj4860SpcIbLq5ObT39ESqUs/gUOgZGQk9A4OhpqEhHMTYVhCooHkwBkyxsLBQggQ16yAJ9N3a2lrC2IKYlQ7W6kvgFnbZxsA4B+dZ4y8caYibDRmDirKtc8f5ikxq4NjeeQySHNvb28Xt7e2pV0P45RDCL0+cP1/V09f/VFNV1Q/UnJ19YG156fmTXK7xYa/zPzQamppCW1dXxAQNbW3Rz/nLj4aWzo6QyVREdgNEH3mf6uvDSQx5JOaXdgKEfO3atVKrNmvoRWEXwVH8K+MYIsSrfiEpNNgFyRBhxkY5qmu2kG5vby+l+dg6oVAsVBVSJNHTuZU+gIHacGF8PNtYWfl8XSh+oKmq8v1ba+vvzR0dNr0lC4jUk5rQ2t4Wmjs7Q0dvb+gZHAy9Q8OhurEp5ONjIGQrH81hqovznGztHOLgqDhbGs0mYXZ0dEQ2A3/DHCsrK5GtoQrF7q5bVkYxS0BEelH0rcwUlsh+LPZUEY+XY1y3LbpRzxZnZl7+27/4i0/PzM29JY/5Ox3vaAnyeiOXy4VXr11j240MfXa7cyPDlbWZiqcaKiu+ryJ39L7T3PGzO5sbfcViseKNqGUSV9RPpL4+tLS1hab2jtDZ3xdaWttCS09P6B8eCSdn+dDe1V3CrDL1XX0/xGgsoq6HGLhaIDdrXoaHh0u9APnf/h1DQ0MRYSJJNLY5B0IVuM6iM6WESO0WjMEcQi3Nzs5GvzHSWQ9zmu+W7HwlqqT3ABOxxsh13N62X1WOpKdvsBtvbm6yRX8j/vm76OFd7R1jrTW1z2fP8u/va2t7dvrWzcuFQqG2KlsVKioqQ0d3T2hoaoxsgpOzQuiNvEWjoTKbDbVNTaG+oTFkYyR6iMfCK4hpqKsriisY4U92vVLfF1CO4/idRFhkd7506VIJe5jf1uILYKGHydp8mCQJk+oObx2L7Z1RjUSrFIAvxCiQq6urJfwtr2XradYu6IWFZmwUrL+vr4/jCmmyAcsM8poRMUVba11ldU3DY5ceqd7bP+h+5NIju/t7+zeeefaZha72jr2dzY3vO0U7zWTC6Ph4RMyoHO7qgldLMMmOS+ymYvdCrAbXbIJpvxG7WZnohw3hTm5thb0ELe21J+Ly8nIJqxdpkciD+qbgncwnvi5zzM/PR5/xo5TZ2dkplRsnu1mxXhHntVeEMhX10qpMASmO9nI1lj+nYbxjGeR7nn46HO3uNOcKxfrGxsaKi+fGG06OTzo6ens7O1pb6gv5s66GlpaO86Mj9YsrqwPj5851hNOTjmK2urcmm209yuWaa+OWYjbPgUC3IfDWttAU14Gwa6vC6MER1dEWzRCVunqI2x6Ikdvd3R0RoG2dBboz2ZLrqiYJi2rSJj9eXyALiNLdXO+SPeUF8LZEwP6CglhzfzCiABDCB9lxS8QXBoxkbxIkSk9PT3S/xkFs/KkNgx00OTkZ2hsaTisqyhLkgY9f+fv/+4+v7uz8SEVVNrR0dDTv7u5WQljNzc2Z973vfZn84WHj2upqW3VTU+vp6WllbU1NxXEu15ipqKirymYzgj3zYvXt22RzpL4htLS23tuVz85CRV1d5CUyMjwwMFACe07WkOvFETCO41FN2EnPnTsXSRWBp1Hh7LDLeRCiZb8CPECsShtUHfF31endjQW5ExxbyaSxbOkwDCdTbGxslBr2iOIiBKqqkmki/OY7GEMcMdFdOI9ngX0TYibCfrPhkOiLYoUJz8SziBob1VSnyjOUGgZpbWt7tnVo+CdVXXjhtiKzDXS+sjIUYqCEqJow3rElPnscqlfzYjk/iYZoV1nLc0VJYdfVqFV9UQXhHHdNjrPc1hZsopPY+kDYT+YX9MEsWDNhWRefcS078JpGbgvrJJxQuJddEBGhDCawns1KZSiDd/ZR5F5HR0dLINjeA9fjecksnCeInv0UQ2yX8Ld2D8yB1MOYNzJvXX9da0smpMfLm54GOhWZTLU+fpEJeSG8WJvH8GLtmy74WtLfL0FAmBC0BVOoJIJh84LZNVEVcjH0poamPc8hFKFEuS7EYLRYVQW1g3lZk+3TLNhiHTIU52EzqONzbQm/JS5EsteHnixsF3dzs2RDDDrB2kRY8XyubWwk2aMcaSqInv1KYAgLneyvwvqVLPY0seAsqZ5Zpy9ugM+M+8RIZ72Li4t1ZymyQVLDIB0dHbvWh4fY18+AONX12el46UL82HlVqFEYSwZwFxfJXP+9zWisZYDhjDK78zIH1xUdUYZ199cO4TNULkGqIS7tBmvi+cxdFqJ0p9bTJdPqdt2PU0eQDsxj2odYxPzNzq0NAqPay8SUEnuPcF3XqyplBFxJJ36xUnc3rjGXgYQ3VbJrqwh6Z6BRJHm0lmKxzCAPfKyvrzXr9VGS8PJ4ITbVgUAghhDvpmNjY6X+GBA2RAkBWiOt3aCrNQnDk+xQC/GInqgEUHrYLFOG1VvFNYQVNWBmgx0xd4UI1T4SB0tPkcgqNtzh2uzwHDs3NxcdJ4ypYHesieekYT48PFwC2oPZRJ9kTcIjqSYmMX1V6USDsTOV4N/aR96r3jgb+nCuIONWEMaOgf00VRSmhkGy2eqKRx99tLQL+hLZ3ZEaEB0ME+J0C1MoRDYRo0poT92TDBhJ4rKtm+qKoA3stvrvmcdINJ+h5sFYMhTXiCrvOjtLLalV/cTJsq2zHirBIkR159q2VnZXFneLv2VI7sO+8QYRlXKsJUJhjNsy2KpaAlb94tkpWXiGAmdzPGu3yxRrguk5Z3FxsbR5MBdMFOKNSehU+7WLURYFKxcXU0NzIU0McnJyklet4YWpJvAi2CVFJxFDl88hGNsV6CFShRI90eaSeocwJmUQCI053anVycXudS4hS3WDMocQQxAcEkrj2E6wAuCJ82vgTnctNpBSxGtrwzD4XkeAbmbUGn7DZBr+MLJqpEZ7Lq4l136wbbYeNSP0qnIzMzMlDxlzI8W4H54L69CVK4axruGk/Sd00uHRUbZYSI+VnhovVldPz8FxVbaExs5LGBkZiXZI3ZkSjw1hhJoJceyBFyx8Dy/Vn2S/cPvy2TyH75FQ1jZoAykpHNoiXEcGEzcr2R4BBrEVQ7I/uq5Wsb101wpJxLEwoirL5ORkdG+qMSLJcyzrhUAFtNDQ1kXNMbdu3SpJTvGL+du+KyHOxJWJmUcpxlplNFVDO1VFGcdxwFK8YlXXuLFQLvnc3u4jNSvdPjioNEhlbMB4gnaJKo5dYfXDu3tGuFZxvw8bdNrp1p0QtYDPVSXY/ZN6tUYrf9vgE8JUn9desHus/cWZV7XPbla6TTHk/Zt1cW2IVNwuNgF+9ERxHQjelHPT1W3UyT2yDtakd41121LaJqT8zW9bSjA3hGy6iNJR1zISgPswidG0d1U/3dshzhnjWK7B2u2ZUlVZeVaRolST1DDIzvZ2o6DUeoz4PTU1VTJsIQiNTHZrDU9eIP+zC+pxYVcMsbdGhoIg9CTZe8SOsxrTun+1ZfhfgrLlgmoY69EGCrGXiutJhHyuyxTVRTUl2ctcAjRuY5DToiSbgLJO00ZkPpFFkh1v9U6JE3zjxo1SHMn7DXEyJ/8bm9HVbFoM9whzwdyoY6ydv5mH+7M5UYjtqn/XMXcvVakmqWGQ3r6+bbNN3b1F27BBpV1iIX6b0xh15rft2jSo9ThJfBCStdTJTrrGTgz62RMRohMPShencRN7DarisTaujX1i3pMpKaaYKIX4nt/GV8zRCrGtJFACa4UoNcLNzI2Cpvl8KbgZYqmrB08cYo4ZGBgoSVo9V8k22Kaq6yqX6cw6vnjxYkndYrOQUbmX7u7ukgqr86NQKBbSFEpPDYNUVVbleTF7Mcq5u52+fF4KOyefISns7WdnJs4zLdxWBBsbG2aYRoQu2JmqmtCmyfSO8+fPf1PbBF2cRrlVwWQiGc58K37zmZmz/KAmsiaYx8i9wUltBpiaexCk21Zs7vLJ2AvPwjiExUoCfSuR9IwpHfTScS+cxxru3r0brceOvHrdxDRW5eK5mmrCd2YaqPom+6N0d3XvKVHTMFKz0vW1tcZCnCEa4lLSENca6F2xqEhvFj/aFhKnvcL146vT6wEKsXFq7pHEaq8PO0gZXFSCeX2lg0yVdOEKh2oiomoNjLod9xpX37fXod40c7O8vxAnNCalmZWBbAJG19ksRLdPrsf+JBHqfDZb6p2Y7GOiJLYjMIxjA1JT5f0NAyFde3p6ouCstp6qmetaW1ttPMunB7w6NRKkpbXlNJkVqz2hSmW7NRMJ9flPTk5GL9jgG+dDILY0ME2cOXmxnM98MJY9Cy1fNc08JOwJCIzzIR6DlEbYxQpWMrH7MleI8W1tBmSsgWt6nq3jOJ97NTPXSLrqoPlQpsWHe6XGpdiPqfX8r63BeRr5nANzcw2R80dGRkrGvhnCrNcYjYj2Mjlr0q2LaqUtFeJ2EUhI0fgzFRWZYoqSsVIjQTY2NmrPqrLfRIS8XNsaq5Loh7ePx+joaClfyeCfujlEbco657P7odOrrunmhWg4T0+ZhjjSQsPVgqVk+oVxAYgI4rI+wwRCJRDE2RpnEwuQoLdobGyspPIoWaxYtN2bRrPZAd673jeNc50NrIlr6ZkLsUTWHa1UMT7jvZtbpaplzpbADcynJ8818LnoKVGKTW3NSRm04QEPmKK2rv4wE6tFGqM8cAhOw9ukRYna3CXRO0xoVMVxB2cOK+2Ghoa+ydOkDm1JarL2W70bwrHjLXPDaOr77qz8DVExDKCZqqG71mKrZDr+4uJi6XthdWQCbQnVOXdy1TaLnmRUVcpkMqKZCRxjjCOqe9neLgHAmaRpWa/dvLS97LmCBLSuPcQGvcyualZRUVE20h/0gGhzhUKfGaRKDl6YaQ9+phfHTNekbWKU3RQIiFEXLzq4qSQaymLQWpykuqGXiu9trZZ0garGQUjmfSEFBF/jWjKHRI5qYp2FnjpbO4c4EMn8ECHH6SnyfsyJErQNApYwnU8JaEeupPrn0MZhHXqzfFbMp5NEJ4XMCWOqcpmeg8rKPZg3x1hcWGhIUwOdVDCIrlNdr/6vXWGtgynoBv8MmIU4f8o6biRGiO0AA3K8TM6Znp4uGbTaAWbdSnQG9CYmJkrNdZhH16sMqicpxDaLOVNIEr1HpsSg90NIqHjJem8j73yut4rBemE402G4r7m5udKu7vxKQo11pDGf2bhU1U3p5zPUY8Z9QvA8RyVjMrqfjJX4nb3iuZbeLD6Dofv6+3erqrIPkZre2EgFg0C48/PzJW+I5acmwlkMxQvQG2SeES+az2QwiBxiUU82efDy5csld7FEbaUc12AH5HPmsbDIHVh1BZXEqkHTVjRwLSiyotB2bgYXmYvrqeaEuMjIbrdIAmu+Q+wRY16+M7VleHi4JOEs+fU+sHG4hjYL98K9Gon3Wdh73Tl4TjAiUpp1wSTci2uUoYz36EhpjrtMcSzXtuqyqqoqE8pG+oMfgqAZJFPlMWFQMARrFjTMeTnujKpFlotaJAXhQQDmUhkUTBYdwXz8HWJgByWTHi5zpyBo1BHm1nWqzRRiu2V8fDyaj2ubOGkVng1IIURVNBjFGJBJkfZTzMVt6QwUmqJuxgDEb/2J98Rn2m4ey2cGM2EkhkzFtVkPzxhJxlo9Nqm6KU25b9bC+dpPVoA2NTWdpQnVJBUShMEupsRwh+JFqIKYscoL0V0aYtXKSLFxgORuqYqQbOkmrqzto82K1WPDZ0ghU8lV+1ApIArWZWCR49hdDZ7xMzMzUwryWajEnFyDubQpOI7jUfuYR8gfPWlJ3V9JYLBSD5V2F0xiXTjMZJq7jG3KezJmwYBBYUBjR54DwWsD6hLne+tHZGKj/EqRpaWl+rIN8iYMdidVGwuWeOl8rm1ihq2eGHYsXqTAaPzozTLXKNE7r7TrcYzluQbirEe/c+dOqRgoxKqcuWBJaB/TL9zFQxyANFXFwiwJTsI35Z7jWAufiaiiqsbnSk7vRYbkGhZRebzuXmMhzDkwMFB6Xqpu3nOyr6A4vuaiuUmEGMdL7xzvxmdhCo7lAXYEjtS1oaGNbHXNQ6SkNzZSwyCIdl2Rxg6sY9CodJeyaMc072Q013QK0Td0URpg1DUZ4tiAu79N8FHPREqX8ARc0F5xbj1QqjB64GRICcgsY71AJi4alDPx0IpEmF71SvUxxE4H/oahBHDwHpFuumZ9FkoXiRdCN31eZjG/jGON71hVqXfMJqn8jfRjsxgdHS1lK/iMUCvXVlY+uRzX4KRhpIZBMEDVZUPsYzdhUb3XumleFN/Pzc1FL1OVw53Xij2NWHdSmNBKPHdkK+OsHbHAirn0WKnOmHIBsavz61CAOJI1Jka03aFlaKGJID7UShuTKgWVjMZmknlSqn/mm8ncpqbrWWMua/eTRjQ/HMcztve8oNTia5l5wHp1YcN8FqCxnhBvCrwbpCHnV1ZWFob7ev/p//FPfulXfIdpGKkoDsZArK2t/ZHe3t6nhZvhRbOL89LtZ+7uzAsz9cSdPyTiG+7cVvcZmNPj5O7qjpx0EJgJLEFoW2g8CxGkCsdxrsV5kxFp1RJVM+F6RBeRGGUcCI57RUWSYa1t0Ui2cEzJYwET3yGdTEUJcdzDwi57w2vLcA9RT4+enuhYkSO9ZkhsLrp4dR2LCRapl8Xiwf76+s/9d3/tr/0Pr1y5kh4XVloYBCPwx37sx34ohPA0D1wiUu9nh2Ln4qWxgwr3aSJdkvBDXAOiC1eVjF3USLXShrms8jMthP8N2gnapkvXKLMEqOtT6SNkkPYL69DlLAZVsuhJI5s1WteChHutd8oUm2RvcpMemWNpaSl6VtyT9pE17Qb9DGZasajtoLeQ/+1Bb4ZwiO2qJMSS9lCknmaz+dze7q/95r/8jf/kF/7BP/j0QYo6SzlS4+ZVNxf4QFdqiHdBYwKqUeYfsZtrRLv7C7ljcNECJVUrVQp3d4mTa0DQgkgrZezmCqGzs8cpFaXmlSF2MiRVQeZBbVTF4t6Su7K935VK2Afmc+kM4FoQtVBBMJhxoWR6Cp+rDiZr35Vu3reuXB0Gptloi/Csbt68GTEINoYtoPWCWYJ7cnKyfZY7+n9+6xOf+D8/9bu/ey13nJ62z68dqWEQ08v1NPHi3H15OVNTU5FB7m6fTBM39UPDV7XA8lgjvSGR0gHRqc8n69rNwlViKJW4pm0M9O5YmMSarNEwb4u16irlOyUFDDU4OBjZT3xm1q1ZxXxncNBacoHsYGwrJVWTDGgat5iZmSkVMqGyacO8FgneNBxUOiSEdo2qWdLLFT/bs9Nc7qX9nZ1f+cxnP/urn/z0p3dysf2U5pEaBhkaGiqhdxhNFvCAF2rKNsRrSgkvXTRBAQx0dxrcMy0+CfXDsfbBENBB2By+Q2XRQ2Tuk0jpVu4Jdyrwgl4gbRlhSrVfVBkhcFM7bITjuSKk2xbB5EbTRPSaGQlfXV0twY66OWhom6+l+mSFoflspsQnYV6N/Ie4bmVtba1YXVExVVEs/PNPfuITv/b7X/3qjVuTk6myMf5jIzUMoq67uLhYCo5pvGpvQHzJclELm/TuWDsBUesJ0ssDoWlUCkKNsW+BlNHuEKfa67GCeGFednP7hcscupXFq1X6JVM7jFvoaPB71qeEFFeKeZRsyTp500cshdUDZ/yFZ+AatENkTJjUhEc7V7kmngnXYk43mt3d3bMLY2Nfn7xz+xPXr9/4rd//w6/d+sYfvfSOYorkSA2D2IZAZD/VDTNoVZWs89YLo35ulyMI38IqGaG/v7/UZkCm0sOk4S0spy5kmG52draUkGj8RGR1k/YEMNBxYGWjahN/K0m4pkRsNF1EQ9UkvU5ITHV+zpMx3Bw4jueDFFEVSiKboDqhxrE+JbLxGplOfK29nZ3ds/zp7+zs7n7q5Zde/t2/93f/ztzU9MzDJom3ZKSGQVZWVjKifNiEEqIRrE2EDwkoWRPNQNe24xHHeq7EBbELyymqoblZfX19pei8RG/wzd5+SiADcXqmJDYNX47TAybYsynk1qsbzee3LmqliqByFiyZUaDXTIRFDG7BJsT5te5FW8PERtsrwJQ8k8aGxlx7S8uVqdu3f/uPX3nl81958cU/nJyeTp8L6gGM1DDI+fPni7pwMciF9ZTYLAgSSADCsODHDFmherQp+J853Hk5lh2XnRcGEnoz2cdD0DR382Sk2gCYXWC1iUKssxv0k3m1jaanp6NrsjZB8HQJi9OlugcT3759u9TGwWNDrPrpxROXSpcxx5jkybUs9oqfQ64qhOu762tfePXq1c/Pzc9/5bOf/73Nh/i63zYjNQzyyiuvZCCKYtyqOBl/CDFRQhgQEdLCMlndrFb1hViaQEB6pNiN+W3w0Go6CMr0dn38Bg6NrjOnxrEGvNIBojaD1nJW0zKUNF4LVU+GN+im7RFi1y+bA+qcGb/MZfp5su2y6p79T/ib8wYGBqLrra2ubjbW1X5t+vbtP5ibn//CK6++8scv/fErm0extCqPfzdSwyADAwNFs1nVlS1CYtc0qCa6h7u4DSo5nh1eCRPi+MnNmzdL4My6UO3dYaclCNJYAOcrKfT8aPjCUHwv6ogqlZKL+bjG/Px8RMTj4+Ph+vXrEWNwnk04YVjWBMPPzMxE54j7ZR2JapLpNcyN9JMpZKDenp780cHBrapi8cU/+MpXvn79xvVv3Llz58rXX3q5zA33MVLDIKaVKEX4EYpU5lCPF/1QCWLMAQKDyJPNc+I0loioJycnS3+bzqIXSjAGmAKCFp1ESaYHzfQPrqUBbtBO75PNLe/evVvKghV8WrexblmLpuJ2c9+UYmMvQmvR19bW8nU1Nbd7uzq//tIfvfTSnTt3/mhqevrlW3fu7MzNzz/kN5jOkRoG2d3dzYyNjZXqHVCT2ImTKpGfIwUkZuF8VF/8XBetP0mvjTt0iN3LZvearqLL1LwqGOvd7353RPTYR6aMGKm3YQ9z6xEzfd7abzN1bYRpTw6b0TAn92muVygWt0Ph7Nre9taVu3fuvjS/MP/K1NTUq7fvTu7dun37Ib+td85IDYOYS6ShCbGghhiVFkTaWIJuXv38RoZtbGOVntFvQaZtS8bfzGWbAOs3uD4qj/aJBjSGs52e7gGk3UvWM2tWWCKDiDb1DLF0hDmVdlxL4/vw4OAkf3Jyp1BVeX1nY/3K4uLSN65du3p1bmFx5sbNm2ebcelrebw5IxUMYjmn7kxR/FCxLly4UIoAQ4zGHCBq9fUQG+niQXE+DGb6hy2NresQosZKPNPCRVXnN7u86ChiTzGXAUHRPrhG1B88DhxaHAVT2WOkra3tLHd0dFRdVXVzeWHhztz83Cu72zs3Pv1v/s3NjY31W1PTM6dTM98dcYe320gFg0Ds586dKxrdtc7Bft/J+IgAzBCiDeyNL7Bj694VhUTkDYHWLCNV6iRRO2AGA27mfOnJ4liheqy6U9WLpUrh6PDwsKm5aXZxaWl2fX3j+vra2o3FxcVrxUyYu3Xr9uxLL7/8jo1Ip3WkgkFCrP/rTrXoyGzUZJ8Os3BhoGQautF3EQ11oWoU2zwmmUHLcdg0qnNmySbBokVKiSvnjjs6OvYKJ8fzN65fn84dH1/f2li/e/fu5MLWzs7N9fW1pVevXit7j1I0UsEgEPri4mJGBA9jAnqhkgBwgqJZQmsqe9LjIyMkI+22ba6I2x3zMzAwUGK2SF07Ps4d5XKb50aGZ7/x0stLqER37tyZO8jlptdXVibvTk2t5o6Pt27eulWWBO+QkQoGiTFqi+YV8XtoaChSr6ampqIm/SEOAJqox45vpNnkROMMgrKZg4Sq1tbWunF0eLRbODleOTgpzC5MTS7duHFjdWd9bW5yZnapcJa/cevW7d3cycnu7NzcQ34i5fFWjVQwSIgzcCHkjY2NKOlwZmam1FNDsGUDcnx/cHBQODs5WW/v6toqnp5s7m9vr29sbGwcbG0uXr11e7PiLD+/srW9vjg9tV+syt5amp87WN3cOllPEaBAebz5IxUMgsp05et/+Lmuzs4l/p852D9a39k9WFlZKZwcHe1VFQu7R4Xi+uTUVL6uIrOYy5+t375796w2W3WyurmVLxN9eZRHeZTHmzBSA/tTHuXxMEaZQcqjPF5nlBmkPMrjdUaZQcqjPF5nlBmkPMrjdUaZQcqjPF5nlBmkPMrjdUaZQcqjPF5n/H8BAAD//zYIiBSzXLA8AAAAAElFTkSuQmCC;" vertex="1" parent="1">
          <mxGeometry x="440" y="258" width="30" height="30" as="geometry" />
        </mxCell>
        <mxCell id="b8NWn7PsdyPl2fr5w7l8-85" value="" style="shape=image;aspect=fixed;image=data:image/png,iVBORw0KGgoAAAANSUhEUgAAAgAAAAIACAYAAAD0eNT6AAAABHNCSVQICAgIfAhkiAAAAAlwSFlzAAAOxAAADsQBlSsOGwAAABl0RVh0U29mdHdhcmUAd3d3Lmlua3NjYXBlLm9yZ5vuPBoAACAASURBVHic7d15lJ33fd/39++526wABvsAIAiCNEkJBDeIpECAJChBrlVJlWSZrp3achNbXo59nNZJXad23MSNnTpJe5qmdescH6v2cXPiw5y2jpzYkmkLpEjt4CpQIgWCELERBEBsM5i7PM/z6x93sBACSSwz89w7z/t1zpy5d+4A8wVnht/Pb3l+D0iSVJB4y9LRomsoq6ToAiRJJTY0eEvRJZSVAUCSVIh457pFhHxr0XWUVbXoAiRJJRXSnyd3IFoU/8NLkuZcvHPdOuDXiq6jzAwAkqQ5FbetGyCk/w5YWHQtZWYAkCTNmfgIFU6mfwhsKrqWsnMPgCRpTsQNG+q8cupPID5SdC0yAEiS5kDcsGYx9VN/Sozbi65FXQYASdKsinesuZeEfwvxhqJr0XkGAEnSrIibNtWIb/wqMf4j7Dc9x2+IJGnGxbvXbiI//Pu42a9nGQAkSTMmblq1lCz5bWL+M3ilWU8zAEiSrlm8fcUwldovkfMPCF7f3w8MAJKkqxa3rRvgZPoZiL8OrCi6Hl0+A4Ak6YrFDctGqDV+mpPpfwOshlB0SbpCBgBJ0mWL96xbSdr5RQi/CIwVXY+ungFAkvSuurv6858lTX8SwmDR9ejaGQAkSZcUN68ZpBl/hBh+kZjf5yz//GIAkCS9Rbx7/D3Eyk/R5KchLLXxz08GAEkS8d7VS+jwCDH8l0TuK7oezT4DgCSVVNy2boBT7Q9B5SfpxI8DdUf75WEAkKQSiZCwae39ZPlPciL9cUIyCrHoslQAA4AklUC8Y+0GkvwngZ8iz1c60pcBQJLmoQgJd62+jxA+Sc6nCPn6omtSbzEASNI8ER+hwp61m8nzR4BPAauJeEifLskAIEl97NxGvjz5KLv5BOTLi65J/cEAIEl9Jm5Ys5gaHybwSU6mPwTJsKN8XSkDgCT1gXjP2vV08o8RwkchPgTUiq5J/c0AIEk9KG6jyum17yfPPwp8nDS/tTvK95I9zQwDgCT1iLhp1VLy8J8Sko9yMv4g5AuLrknzlwFAkgoSb7qpwejUVggfgvAh8ngnkBAd5Wv2GQAkaQ7Fe9auJ8u3Q9hObP4nEBZMv1JsYSodA4AkzaJ4+4rlJNWHIGwn8GHS/LrpV4otTKVnAJCkGRQ3rxmkmW+BZDuwHbgbj+JRDzIASNI1iLcsHWV48H7y/AFCeJAm90LSKLou6d0YACTpCsRblo4yVL+vO8IPWyHeQ4x1goN89RcDgCS9g3jPupVk7XuIyRa6U/p3Acn0qwVWJl0bA4AkXSDeueYHIGwhyR8ihgdI0xvP9XtpHjEASCqteMvSUUaG7iDPtxDZSuBeYDlEiE7pa34zAEgqhbiNKsfX3kKSbSKGLQS2AreS593hvf1eJWMAkDQvxbuuW0XINkHSbfgn4/0k+RAEm72EAUDSPBDvWbeSTno3SbgL4vuI3AdxnHh27d7NetLFDACS+spbRvY5m4D3kqbrCeAZ+tLlMwBI6lnf1+wD90Jcfm5k71S+dNUMAJIKFzdsqFM78V4CtxPC3UTuAu6EuMBmL80OA4CkORXvum4VZO8lJhsI01P4nLwNQvf4XGfxpTlhAJA0K+LGtWPU2UDM30tkA4RNEO+AOAKJI3qpYAYASdck3nfTAprNW0nCbURuI7AR8o2QryB/y2cWVaKkSzAASLosF43o13dH9byXdvMGEgLEC0b1Du+lXmcAkHRO3EaVybVrSdP1xKTb4ENYD/F2yJe/ZURvj5f6mgFAKqF47+olZOEmMm4ixFsh3ErgVk5yM+T1t67RO3UvzUcGAGmeihvXjlFjPXm2nhDWE1k/PZrfQIdxYLrJT3d6+7xUKgYAqY/FO9ctIslv/L4mH+N6Qr6eCITpBh/ALi/pLAOA1MPipk01eGMteXYDMbmBEG6A/AZiuIHAjZAuvWSTd31e0rswAEgFe9up+hjXkx9eC1TPr8lHvJudpJlgAJBmUXdX/apx8ur1ZPlaEtZAvJ4YbgBuANZBPuAoXtJcMwBI1yBuXDtGwiqSdJyQrAdWkTN+bgR/kukRfN5t6BHs7JJ6gQFAuoQIgXvWraDdHqcSVpOHcRJWk8e1hOQ6QryOyFrIB7t/Ijm/v84RvKQ+YABQ6cTNawZJk3FyVpFl4xBWERgHVkEY7+6g5zrStEaSnFt2Pz9NH91ML6nvGQA0L8Rt6waYbC+jnYxTicuJyXIC48S4HFgGrAFWAmtoMsjZI+3CxcN0R+6SysEAoJ4VN61fSGwvI8+XQ2UZSb6SGFbQbejjxLiCJCwjMs7JdAEkkADRUbokvRsDgOZE3LxmkGYYIw9jVBk7N/WeMEZkDKbfn5uKZwl5uw5ASOg29IuG5iHY5CXpKhkAdFm6U+wsotVeSC1ZRAyLgEWQn308BmEh5Ivg7GssgjgGYQlNqhAhid3Z93CJ42edepekOWMAmGfiTTc1GGwPUW1XqdZHyWMghkUEBknjECFfSJKMQBwmMky3UQ8BQ4SwkBhHp5+ffa37/mQ6AEAlmV4+f8uW97Nfne/v4nZ1SepFBoCCxDtXbYHk0wAkDEOoX+KzFhJDcsHzQLcpAywkkhAYAWrAIDAAzemXq5CevXfr9Hp4AhAgvs28+dt9XJI07xgAihIqt0D8WWB6MP12zfcdmrKDa0nSVUre/VMkSdJ8YwCQJKmEDACSJJWQAUCSpBIyAEiSVEIGAEmSSsgAIElSCRkAJEkqIQOAJEklZACQJKmEDACSJJWQAUCSpBIyAEiSVEIGAEmSSsgAIElSCRkAJEkqIQOAJEklZACQJKmEDACSJJWQAUCSpBIyAEiSVEIGAEmSSsgAIElSCRkAJEkqIQOAJEklZACQJKmEDACSJJWQAUCSpBIyAEiSVEIGAEmSSsgAIElSCRkAJEkqIQOAJEklZACQJKmEDACSJJWQAUCSpBIyAEiSVEIGAEmSSsgAIElSCRkAJEkqIQOAJEklZACQJKmEDACSJJWQAUCSpBIyAEiSVEIGAEmSSsgAIElSCRkAJEkqIQOAJEklZACQJKmEDACSJJWQAUCSpBIyAEiSVEIGAEmSSsgAIElSCRkAJEkqIQOAJEklZACQJKmEDACSpAKFyaIrKCsDgCSpOEl8oegSysoAIEkqRmQPCw48UXQZZWUAkCQVI4TfDjtIiy6jrAwAkqQi/BnP7Pts0UWUmQFAkjTXnqM+8OkAsehCyswAIEmaS9+gFj8Yvrb7VNGFlJ0BQJI0N0J4lKzzcPj6gWNFlyKoFl2AJGneaxL5tfDMvn9ZdCE6zwAgSZpNTxCynw/PHPp20YXorQwAkqTZcJQQfpWn9/1fbvbrTQYASdJMOgP8K2L1fwzP7D1RdDF6ewYASdJMaAJ/QLX62+Ebe18vuhi9OwOAJOlaTAB/SM4/C8/tP1B0Mbp8BgBJ0hXb10557PjUsScnWr/yh6eaf1x0PbpyBgBJ0mXpxMhTp1t87s0Jnp5oE2EJ8EcP1Sq/QMx+5fGUrxRdoy6fAUCS9I72tjp84cQUf378DKfS/BKfEd9PSJ58qMYf1jr5338MTs55kbpiBgBJ0vc5k0WePN3k8ycm2TnRvpw/kgA/06knH3kohJ97vJV9bpZL1DUyAEiSAMgjPDvZ5gsnzrDj1BTN/Cou34+ME+Ofbasl/5pO/l/t6F4doB5kAJCkkjs7xf/5E1Mc62Qz8VeGCD9HLbl3azX/xJNTvDYTf6lmlgFAkkro9U7K35xo8hfHz7Cvnc7Wl7mr0km+8kAt/+SXOnx9tr6Iro4BQJJK4mia8fjJJjtONfnWZGtuzucNrEpIvvhgNf/wEylPzMWX1OUxAEjSPHawnfKlU02eOt3iW5MtLrWHfw4MhZB87qFavv3xDt8opgRdzAAgSfPM3laHHSebfPl0i+9OtXvlTjwLIPnLDzTye/+mxStFFyMDgCT1vTzCi1Ntvny6yeMnmxyYvTX9a7U4yyv/dgPZll1wWdcWavYYACSpDx1PM7450ebrp5t8daLF6aygyf0rFt+3tJ78E9r5rxZdSdkZACSpD2QRvj09yv/mRJvdU+2i1vOvXeRXHqzz2SfafLvoUsrMACBJPepgO2XnRJudE02+Mdlmsm9G+e+qEmLym5D/eNGFlJkBQJJ6xNE045mJNk9Ptvjm6RZH0hk5lKdX/eiDdX7LWYDiGAAkqSBnssi3pzrsnOxO6/fQjv25kIQ8eQTy3yq6kLIyAEjSHGnmkV1nzjf8vl7HnwkhfAQwABTEACBJsySL8EqzzTcn2uycbPL8ZIdOLNEY/13F922FsSfheNGVlJEBQJJmSDPvTum/MNnimckWu6Y6tK/mjnrlkdRqrKVjACiCAUCSrtKbnYyXplJemGrxwpkO3znTdoR/hWKsjkP6XNF1lJEBQJIu08F2yrfOdHjhTIsXJjvsbXWKLqnv5SEuL7qGsjIASNIlNPPI7maH5yfbfOtMi29NdTiVlnrL3qyo2IcK4394SQL2t1O+M9Wdxt91psPLzTaZs/mz7tZG/fQXO1NFl1FKBgBJpXOsk/HyVMpLzTYvT7V5carDCUf3hfiJ8aHh/+O7BoAiGAAkzWuTWc6rrZSXpjq8PNXmpanUtfsesapezd43NLCm6DrKygAgad5IY2RPs8MLZ843+9danXIfttPDPrNywfF68NtTFAOApL40meXsbnb4bjNl91SH7za7u/Jdt+8Pm0bqPDQ6sIQyHX7cYwwAknresU7G3lbG3pYj+/lgRa3CP1yzmCQQ7P/FMQBI6ikXb9D7TjPlzc68viteqYxVK/zT6xezqJoUXUrpGQAkFWIqj+xtddg9lU5P5XfY0+zQ9OjceWtFrcK/uGEJ19VtPb3A74KkWZVFONxJ+V4z46Vmm73NDntbmVP4JXPbUJ1/tHaMpdVK0aVomgFA0oy5eK3+1enH3hCnvALwqSXD/PzKBVRDKLocXcAAIOmKnc5yvtdKebWZ8r1Wh5eaKbun2kzZ6HWBVfUqf3/VIu4eqRddii7BACDpbZ0d0R9sdxv9q60Or7YyN+XpHVVD4BOLh/iZFQsYSBz19yoDgFRyaYy80cn4XjPj1VZnutF31+jdkKcr9f7RBr+wcgHXN2pFl6J3YQCQSmIyyznQTjnYybsb8c5uxmt3sM/rWr1nqM7PrljAXcNO9/cLA4A0j7TzyP52yv52xv5WyoHpx6+1Uo6nTttr5t0yWOfTy0fYMjpQdCm6QgYAqc+cvazuUDvnYDvlUCc9N5p/vZM6mtec2Djc4G8tGeH9Cxq4yt+fDABSD8ojvJGm7G9l0yP6lH2t7vPXO6nn3asQlQAPjA7wyNIRNgw51d/vDABSQToxcqSTvWUkf7DVXaN3A556yUgl4YcWDfLI0hFW1DzIZ74wAEiz6HSWc2h6493B1nSTb3en7w+1U++Dop62cbjBR8eGeHjBAHUv55t3DADSNTid5RzuZBzuZBxqd6fnD7UyDrYzDnZSWo7i1WdGKgkPLxzgE4uHuXHAS/nmMwOA9A5OZznH0oxjnfh90/QH2ykTmafZq//VQuD9ow0+tGiIzaMNah7ZWwoGAJVWHuHNLOP1dsYbnYzD7e5I/vVOyuvtnNc7qevwmrcSYMNwg20LBti+cJCF3p63dAwAmrcuNXo/1sk4mnY33h12N71KaF2jxraFA/zgokFWeVveUvO7r76TA8c7GcfSnKNpzuF2ytG0O4p/o5NzpJNxpJPRiXZ3CWBlrcoHFw3woUWDrPOIXk0zAKintPPI0TTjzenmfrCV8maacbSTcSyLHOt0G31qc5fe0ap6lftHG2xbOMiGobqH9ej7GAA06zoxciLLebOTcTyNHE+7o/fjZxt72h21v5nmjtqla3B2en/bwgFH+npXBgBdlVYeOTm9xn6iEzmRdZv5iSzneJpzLM05kWYcT3NOuVNemhVnN/JtHmnw0MIBVrumryvgT4voxMipNOd0njORRU6nkdN5fsEmuozTWc7pHE6nORNZzlFvLCMVYiAJ3DPSYPPoAFtGB9y9r6tmAChKyCeIM7MqN5nltGNkKo9MZDkTGUxMN/CJLGfi3MdzJvLp19Pzz6e81E3qaStqFe4dbXD/yCCbRuqeyqcZYQAoSqv9Hx89nZ48kWYLz7bfLMKZ/Px0eTOPdPJIO0ZaMTKRdafe27Hb0Nsxep26NA8lwE2Dde4fbXD/aIMfGHQTn2aeAaAgYdeRiQcb3BPy5AvAuqLrkVSskUrCPSN1No8Oct9Iw6l9zToDQIGeaPHd+8jvGKgl/xz4DBjypbI4O8p/30idTcMD3DFco+oRvJpDBoCCfQ1O0cl/7qEqf0Ko/C7EzUXXJGl2jFUr3DFU4/4Fg7x/tMGCiqN8FccA0CMeT/kSZPc/XK98PI/8BsT3FV2TpGszUkm4Y6jO3SMNNo3UvTZfPcUA0GO+2M7+DPizbVW2xST8PWL4CC4NSH1hIAlsGKqxcajBxqGG0/rqaQaAHrUjZQfEHQ834i0xTz4T4aeApUXXJem8gSTw3qEatw81uHu4znuG6t5KV33Dn9Q+8WFoTNYrnwox/wyEh/B7J825sWqF9wxWuW2owe3DdW4ZrNnwr1WMvx6ePfA7RZdRRs4A9Im/gBbt7N8A/2bbYFyTp8mnAvxt4I6ia5Pmq1X1KhuHatw21GDjcI3rGzWTt+YNf5b73MM17stJ/haRHyawpuh6pH5VCXDjQJ3bh2rcNtzgzqE6i7wWf/Y5A1AYZwD63Bc7fA3yrwF/9+E6GyLJIzHy48DNRdcm9bKhJPCeCzbs3TZUo+ERuyoRA8A88sU2uyDfBfyjC8LAI8B7i65NKlI1BNbUq2wc7jb8mwerrG3UcHyvMjMAzFMXhoGtA6xPsuRjEB4JxC1F1ybNpkqA6+o1bhmscvNgd6Oem/Wk7+dvRMlsa3BTzJOPQfwwhAeBRtE1SVcrCbD2omb/AwNO5fcV9wAUxt+SEtsEQ6PV6v0x5B8DPg5cX3RN0jtZWq1w83Sz3zjUYMNQjQGbfX8zABTGJYAS2wlnSNPHgMeAv3t2qSAQPzo9O1AvuESV1EASWNeoceNAlRsHuu9vGqgx7Nn50owxOuuSfhCG29Xq5unZgU8C1xVdk+anpdUK1w9UuKFR4+bBeneDXr2GA/uScAagMP6K6XKEbTXuICbbYxI/QAwPAsNFF6X+cnYn/i2DVa5v1LihUePWoRpjXmtfbgaAwrgEoMsRd3R4FvJngX+xjVgNNe7IYrI9hLgdwgO4mVAXWFGrsH6wyo2NGjcO1LlxoMqaetVRvdRDDAC6YjsgpcNOyHcCv7uJODRard5Pkm+PMWyHeBd4ifV8VwmwolZlvJ5wQ6N7TO4NA1XWN2oMVez0Uq8zAOiaXbSZkG2wNDYqm0OMW6YDwaZiK9S1qIXAslqFdY0K6wZqrGvUWNeocH3Dy+2kfmYA0IzbAUdpZZ8DPgewdZC1lbTyQYjbgAeAGwosT29juJKwul5lVS3pNvqBbqN3Q540PxkANOuenOI1yD4LfBbgARhP6pWtxLgVwhaXDOZOLQRW16usrldY06iyut5dm7++UWFJrVJ0eZLmkAFAc+5LcIh29ijwKMB9sGCwWr2XJN+ex7A1EO/BMwiu2tkp+/F6wqp6lfFatbtGP1BhZc2NeJK6DAAq3Nfg1IV7CLpnEHBXTrJl+iqDrcBAsVX2Fpu8pGvl/ybU87bBQKxyTyB5KE/i1hDD/cBo0XXNtiW1CivPvtW7jX11vcrqRoVltYprJpofPAegMM4AqOftgCYpX4L8SwCPECtH69yaxcqm6bsbbgXeQ58F2tFKwvj0prultQqLqxVWNbrPr2vUGHQYL2kWGQDUdx6FjDa7INsF/DG8ZR/B1kjcRAxbgUVF1nm2wS+tBpbUKozXquca/Jq618pLKpYBQPPCxfsIZnuWYGE1YWm1wvJ6wrJqhWXVCsvrVZZVKyytJayoVbxGXlJPMwBoXrrULMF2WJhWq/eQ5FtjjFsg3A8MXfxnRysJS6oVltQCq+rV7uNqpfu4FlhWrXhXOkl9zwCgUoiQcM+6QfL0MDF8hZi/kubhsTc6nY2TOTfXEq4fSsLYWLVSqwVH7pLmPwOA+lrcvGaQNBknZxVZNg5hFQlj5IwDqwhhjBjHCawlTad/3iMQqCawqlErsnxJKowBQD0lPkKF3SsXQ30ZebaCEMZJ4nJiWAlhJcTlwDiwHFhOkyrk3T98duTe7e+ce+KAXpK+jwFAsyZuXjNIM4wRwjikq4hhjBjGSBgjMgbT70MYg9h9vpvlQAVyzp1mE8928FjMP0SS5iEDgN5W3LBshKHhETrpKEmyALKFEBYSWUxkMYHFBJacexxZDIwBi4ERmgARYuTcUf+Bt/bxADZ2SZp7BoA+FjeuHQNgIGlA3t3NnjEGWY0YR4iVYcjrEBaRhDoxjkAchtD9WMgbxDACYRHEBcDI9Nso3UYOaTrdtHPeMpd+8aDcHi5JfcUAUJB496qPEZP//hIvDRIvOvc+UOX80bfDnLtRzvTad5pf9FeE7lu4YDE8xgteg+7I3Kl1SSorA0BhKkshbrrkS25akyTNMk8zkSSphAwAkiSVkAFAkqQSMgBIklRCBgBJkkrIACBJUgkZACRJKiEDgCRJJWQAkCSphAwAkiSVkAFAkqQSMgBIklRCBgBJkkrIACBJUgkZACRJKiEDgCRJJWQAkCSphAwAkiSVkAFAkqQSMgBIklRCBgBJkkrIACBJUgkZACRJKiEDgCRJJWQAkCSphAwAkiSVkAFAkqQSMgBIklRCBgBJkkrIACBJUgkZACRJKiEDgCRJJWQAkCSphAwAkiSVkAFAkqQSMgBIklRCBgBJkkrIACBJUgkZACRJKiEDgCRJJWQAkCSphAwAkiSVkAFAkqQSMgBIklRCBgBJkkrIACBJUgkZACRJKiEDgCRJJWQAkCSphAwAkiSVkAFAkqQSMgBIklRCBgBJkkrIACBJUgkZACRJKiEDgCRJJWQAkCSphAwAkqQixaILKCsDgCSpOIHjRZdQVgYASVJxIl8tuoSyMgBIkoryeHj2wLNFF1FWBgBJUhFyCL9ZdBFlZgCQJM29EH4zPLPviaLLKLNq0QVIkkomxs/yzP7fKbqMsnMGQJI0dyL/O88e+Jng5X+FMwBIkubCFMRfCM/u/6UAedHFyCUASdKsi98mhB8LTx94vuhKdJ4zAJKk2dIBfpeFtbvD0/tt/j3GGQBJ0mz4SyK/HJ7d/92iC9GlGQAkSTPpG4T4a+HpA39TdCF6ZwYASdK1CzwD/BOe3v//usO/PxgAJEnXIDxFyH6Xpw/+uY2/vxgAJElX5EwW+ZtTU/yHN8+0vt1sPx7a+Rd32Pz7jgFAknRZXp5q87njZ3jsxBRTeQRoAP9drCd/58EYfuOJTvZZvMa/bxgAJElvayLL+eLJJv/fm5O80uxc+pMiKwPxDx6qVX4hhuxvP9HmhbmtUlfDACBJeosI7DrT5vMnzvBXJ6Zo5pc7ux83hZh846Eq/zik+T/fAekslqlrZACQJAGwt9Xhr082eez4FIc6V927GwR+J69VPv5gNXvkiSn2zWSNmjkGAEkqsSNpxhMnm+w41eSFydaM/b2BeB9p8vTD1fxHvpjy+Iz9xZoxBgBJKpnTWc5XTrfYcfIMX51ocdkz/FduaR6Szz9YCz/3RCf7o1n7KroqBgBJKoGpPPLl003++sQZvjHRphPn7Kq9RiB+9sFaMvBEJ//9ufqiencGAEmap06lOV+daPHlU1N8baJ19tK9IoQAv7etXpnc0c7+pKgi9FYGAEmaRw51Ur58qsWXT0/x7GSbrHeO50lijJ99uMo+9wT0BgOAJPW5va0OO042+fLpFi9PtYsu551Uc5L/exv5nTvgaNHFlJ0BQJL6zKk0Z+dkm29ONPna6RZH06zoki5fYHVeDX9AGj9RdCllZwCQpB6XR9jdbPPNiTY7J5s8N9khnbtNfDMuhPDxh6qVhx9P0y8WXUuZGQAkqQcdbKfsnGizc6LJNyfbTGTz64j9GOL/AGwtuo4yMwBIUg94s5Px9Jk2z0y0eHqifS0n8fWFQNzyUJUHHk/5UtG1lJUBQJIKcCaLfHuqw87JJt+caPPdqXb57qcbkk9CbgAoiAFAkuZAM4/sOtNt+C+c6fDimVYvXaJXlP8M+JWiiygrA4AkzYIswisXbNx7frIzl6fv9Ysbtwyx6qkzHCy6kDIyAEjSDJjMcnad6fCtqTYvTLZ4capDq7iT9/pGtcNqMAAUwQAgSVfhWCfjhakO35ps8fyZDrun2syvffpzJKmshD46x2AeMQBI0rvII7zW7vDCZIdvnWnx3GSH1+f5Lv25EnKWFF1DWRkAJOkiU3nklWaH5yfbfOtMd4Q/367D7xX1CpFO0VWUkwFAUqmlMbKnmfKdqQ4vTbX59lSHvc2O0/lz5M6hwckvNCeKLqOUDACSSuXCtfuXmikvT7XdrFeQJMBPLB9e/M/eNAAUwQAgad461sl4eSrlpWabl6fafGuqw6nUsX2vuH+k0b51oGb6KogBQNK8cDLN+c5Uh+9MtXlpqs13milvdtxd3qsS4DMrF7RqIfhNKogBQFLfuXBkv7fZYW8r43utTvmO0u1jn14+yvWN2mjRdZSZAUBSz8oi7Gt3G/zeZoeXp9q8ONXhhNP4fW3TSJ1PL7P3F80AIKknTOWRfa1us395qu0GvXnqjuEGv3XdGEkouhIZACTNqQgcaqe82krZ20zZ3WyzeyrlQDv10rt57v2jDf7xdYtp2P17ggFA0qw5neV8r5XyajPle60OLzVTXplqc8ZRfakE4EeXjvCZFaNUg82/VxgAJF2zySznQDvtrtW3ugfpvNRMOeYu/NJbWE34B6vHeP9oo+hSdBEDgKTL1swj+9ope1sprzY77Gl22NvMPBdfHA4NhAAAEeBJREFUl/TQggF+eXwhS2qVokvRJRgAJH2f01nOoQtG9Adb3cevtTwiV+9uabXCL69ayIMLBoouRe/AACCV2LFOxt5WxsF2d43+1VaHQ+2cg21H9Lpyw5WE/3zJMD+6dIQBN/r1PAOANM+188iBTsprrYzXmh32tlL2tVNea6U03YynGVALgR8aG+TvLB9lrOp0f78wAEjzQBbhcCc9N3o/1EnPnZD3eifFPq/ZUE8CHxkb4seWjrDCdf6+YwCQ+siFl9Ud6qQcbKUc7OTsbXVo2+U1RwbPNv5lIyx1xN+3DABSD8mBI52Mg+3uuvz+dsr+Vsr+Vsb+dkon2uRVnJW1Kp9YMsRHxoYYrSRFl6NrZACQ5lgnRo50srdM158dyb/W6rgur56zcbjBp5YM88DoABX39s0bBgBpFpy9jO5gJ+dga7rJt7tr9K975K36wIJqwg8uGuSjY0Osa9SKLkezwAAgXYXjacbrnYzX2zmHOymHO93NdodaOYc6qTewUd+6ebDOx8aG+NCiQS/lm+cMANIlXDyCfzPNONrJONjJ2d/qeJa95pXrG1UeXjjIhxYNsrpuWygLv9MqnWYeeaOTcaSTcyRNOdzOeGN6BH+4nXO4k7nZTvPe0mqFbQsH2LZwkNuG6kWXowIYADSvdGLkVJpzLM0uOXp/s5NxLM2wvauMhisJW0cbbFswxL2jDTf0lZwBQH1jIss5mmYc68Tp9xlH04zD7Ywjac6RTsbx1LvPSRdqJIH7RhpsXzTE+0ca1F3X1zQDgArXziOns/Oj9mPTo/SzDf5YJ3IkzZjM3DsvXY6BJHD3cJ1tC4fYOjrAkEN9XYIBQLOiEyMnsm4zP96JnMi60/Anspzjac6xNOdEmnGkk7mhTpoBC6oJm0e60/vvG61TCzZ9vTMDgC5LBE6mOaey7tvJLOdk2m3wFzf1N9Oc047WpVm3vFbhvtEG948Mcs9onapNX1fAAFBCzTwykedMZDkTWeRUFjmVZZxMc05MN/aTabfJn2v4ae7GOakH3DRQY/OCAbaMNrhlsI4tX1fLAFCUjANcwVHaOTCZ5bRipJ1HJrKcZh5pR5jII63pt4ksZyLvjsDPNvjuWz7d9KOXuEl9pJ4ENg7VuH90kK0LBrzrnmaMAaAoz+37q19fMvSNI538nrMfauU5nQt689lp9GZu05bKZGE14f0jDTYvGOSe4TrD3nhHs8AAUJAAcdOxM9uGq+GPQwifKroeScVJgJsG6931/OmpfVu+ZpsBoEA74Qxp/JFt9eQnYoz/ElhcdE2S5saiasKdQ3U2jQyweUGDpVWn9jW3DAA9YEc7+5Ot8B+q9eS/jZFfBgaLrknSzKoEeO9Qg80jDd43UucH3MCngvnz12M+MMjqLE3+HvAzwGjR9Ui6OkmAHxioc/dInbuHGmwcrnt3vUsKPx2e2feHRVdRRv409qhtsCivJj8X4JcJrCq6HknvblW9yqaR7rT+3cN1Frh57zIYAIpiAOh9ybZq9QMx5D8L/DDgQqHUAxJg3UCNjUN1bh+uc/dwnTHX8a+CAaAo7gHoffmONH0MeGzbAOvyPPnpEPlJ4PqiC5PKpBoC6wdq3D5U47bhBncP1VlQdYSv/uUMQJ96uMamnOTTwH8BLCm6Hmm+Ga4k3DpYZeNQY/qt5p30ZoUzAEXxp7nPbYbBer3y0RDjpyJ8BBgpuiapHy2tVrhtqMbG4W6zd5f+XDEAFMUlgD73FZiinT0KPLoNBmKj8iHy+FHgk8CyYquTelMtBG4arHHbUI3bhxrcNlRz/V6lY8CdpzZAfWml8kGS+MPAJ4ClRdckFSEJsLZe45bBKjcP1rllsMbNA07n9w5nAIrib0AJPAKVI1U2x5A8QuRHvKxQ89nSaoWbB6vcNtTg9uE6Nw3UvP6+pxkAiuJvRQk9XGdDlicfDSFuh7ANl4LUp842+5sH69wyUGfDUM2d+X3HAFAUA0DJfRCWpPXKB4hxO4GPERkvuibpUpZWK9wyWOPWwRq3TE/lL7TZzwMGgKIYAHSh5OEad2Ux2U4IHwvEzeBNyTS3qiGwpl5lXaPCuoEatwzUuXmwypKam/TmJwNAUQwAelvbYGmsVx4mxo/RvcTQuxVqRo1Wkukm353GX9eosK7hBr1yMQAUxbVfva0dcPTsJYaPQOVojTuzmGwPSdxKDA/hzYp0mRzVS73HmK2rsg2qocYdWUy2T28mfBCoF12XihWA5bUKaweq3DRQY/1AjRsbVdY2qlSD/7vRpTgDUBR/IzUj7oMFA43KQyGPH4zwQWAD/nzNW5UAK2pVxusJNzRqXN+occNAlfWNGkMVv+26EgaAorgEoBnxNThFK/sc8DmAB2BZUq9sI8btwIeAGwotUFelFgKrp6fuVzWqrGvUWNeocH2jRsN1eqmvGQA0K74ER87uHwD4QIMbs7zyYCA+FOEBYH2xFepCw5WE1fUqq2rdTXnrBrqNfm29hn1emp8MAJoTf9PiFcheAT4LsA1WxkblnhDjlhjDdoh34SWHs2og6Y7m19QrrG5Uzz2+rl5lsZvxpNIxAKgQO+D1C5cMtsBorVq9jyTfnsewNRDvwU2FV6wWAstqlbesza+qd9fqV9arJixJ5xgA1BOegtOk6WPAYwA/CMPtKnflJFumrzLYAgwWW2VvsMlLmgmu7qkvfBgaU1XuiSQPxCRuCTFsZp4eTFQNgWXVCiunG/rKWoXxepWVtYRVjSpLvW2t5hWvAiiKMwDqC38BLVKehPzJ7kciWwdYn2SVrYG4qTtD0D/7CEYrCePTm+5WNaqM16rnRvEralW8kk7SbDMAqG892WQPZHuAPwbYDgvb1ep9kG8OSXw/3VmChXNdVyXAkmqFlfUq47Xzo/iV9Sor6wnLqzZ4ScUzAGjeeAxOkqZfAL7Q/cjszBKcHb0vrQaW1CqM16osrVVYUq04gpfUNwwAmtcuniXoXm3AHTnJlul7GmwBxqC79r6okrC4VmFVLWFprcLiauUtzX1lrep18ZLmBQOA5r14300LmDozTrWynJivgDAOcRjC6zHyVCvGdcB1jSQstLdLKgsDgPpS3LxmkGYYI4RxSFcRw1i3sbOKEMaJrII4Bqym3VxIJYEYOX/hS/d9CDDgTWoklZABQD0hbtpUo/XmYurNxeRhMVSWAatI4nJiXA5hFbCMyEoCK2kyBHG6qV+0pB9jAf8CSeovBgDNqHMj8zyMUWWMmI4RQ/ctYYzIGEy/D2FsepQ+Rn54BTUSYmV6cD7dxCO85bgKB+uSNCMMAHqLuGHZCEPDI2TpCCQLIVtITEaIcYQQFxBZTGBx931YDIydew6LaTIAEZIIOZwbnQfO9fRzz3GkLklFMQD0uAiBjWsXAVAPAySxexxuO11IpZoQ8ip5Ptr95Mow5HUICwmhBnEBgUEiAxAWQqwRwgLyOEgIAxAXACPTb6NM74YnTae/es65zh3oPn7rEvq5IiVJ/cUAUJB49+r/mhj+4QUfGgIal/7s/Py76YckCcR8uvmeHWVfuMktvuXd+efR0bckyQBQmJxBwvSIW5KkOdYX56ZLkqSZZQCQJKmEDACSJJWQAUCSpBIyAEiSVEIGAEmSSsgAIElSCRkAJEkqIQOAJEklZACQJKmEDACSJJWQAUCSpBIyAEiSVEIGAEmSSsgAIElSCRkAJEkqIQOAJEklZACQJKmEDACSJJWQAUCSpBIyAEiSVEIGAEmSSsgAIElSCRkAJEkqIQOAJEklZACQJKmEDACSJJWQAUCSpBIyAEiSVEIGAEmSSsgAIElSCRkAJEkqIQOAJEklZACQJKmEDACSJJWQAUCSpBIyAEiSVEIGAEmSSsgAIElSCRkAJEkqIQOAJEklZACQJKmEDACSJJWQAUCSpBIyAEiSVEIGAEmSSsgAIElSCRkAJEkqIQOAJEklZACQJKmEDACSJJWQAUCSpBIyAEiSVEIGAEmSSsgAIElSCRkAJEkqIQOAJEklZACQJBUn5lnRJZSVAUCSVKDKwaIrKCsDgCSpGJHTTJ35atFllJUBQJJUjBD+t/DS0dNFl1FWBgBJUhH2U8v/p6KLKDMDgCRprjXJ+VT4+oFjRRdSZgYASdJcahLDj4Xn9n+96ELKrlp0AZKk0jgB4ePh2X1PFF2InAGQJM2NneTxvvCMzb9XGAAkSbMpAv8r7YX3h+cOvFx0MTrPJQBJ0iwJT0P+S+GZA1+B/UUXo4sYACRJM+0Igd/g6X1/ECAvuhhdmgFAkjQzIqcJ/B5J/Z+GnXtOFl2O3pkBQJJ0rU5A/FdQ+5/DM3tPFF2MLo8BQJJ0tV4n8Pvk1f8lPGvj7zcGAEnSFQpPEeL/SVjxp2Hnzk7R1ejqGAAkSZfjJJE/JcTfC8/sf677IXf29zMDgCTpnewk8K8J+Z+EnQfPFF2MZo4BQJJ0sSME/og0/4Pw/MGXii5Gs8MAIEkCOAn8e0L+KGH8L13bn/8MAJJUXlNE/poQHyWJ/+78FP/BYqvSnDAASFK5NIk8RoiP0m7/P2HXkYmiC1IxDACSNN9FTpOEvySPf0Zj4HPha7tPFV2SimcAkKT56Q3g84T8UU4PfSHs3t0quiD1FgOAJM0fLwKfI0n+nJ2vPRW6t+KVLskAIEn9qwXxCQh/Tqz++/Ds3r1FF6T+YQCQpP7yKpG/gvgYjcHPu56vq2UAkKTe1oTwJMTHCMlj4enXdhZdkOYHA4Ak9Z7dRD4P/Ecq+Q6P4NVsMABIUuHiYULyBMTHSCt/FZ7/3qtFV6T5zwAgSXPvKJGvEniSkDzG06897Y59zTUDgCTNvkkIXzm7js/Trz0TIC+6KJWbAUCSZl4KPAc8BvljtMeeCLt2tYsuSrqQAUCSrt0pCF8nxKeI+ZMsrD8Zduxtnn/Zm+uo9xgAJOlKRfYQeIrITpLkSdfw1Y8MAJL0zs5O5z9FjE8Ssh3h2dePFF2UdK0MAJL0Vu8ynS/NDwYASWU2CeFZiDsh7iSv7OS51150Ol9lYACQVBYp8DKwk8hOKslOmqNfd3e+ysoAIGm+OkQIT5LHp6gkO6nnO8NX9k8VXZTUKwwAkvpdJPIqgacJfIMsfoOBwZ3eJU96ZwYASf3k/DQ+7CLkLxL4Sth58GjBdUl9xwAgqTdFThPC88S4C3jRaXxpZhkAJPWCQxB2QXzxgt343/a8fGn2GAAkzaVJ4EXgBQi7iOEFQvvZ8IwH60hzzQAgaTakRF4DXiRhJ3ncRay86Khe6h0GAEnX6q3T96GyiwXJLk/Pk3qbAUDS5ciJ7CXwEoFdEF4k8gJJ9mLYefBM0cVJunIGAEkX6hDZB7zYbfTxRUJlF2nrO+H5w5NFFydp5hgApHI6AbxCd0PeLmLcQ6y8yM2vfSc8SlZwbZLmgAFAmr9SYC/wXWJ4iST/Dnl4iZDuettd98/NZXmSimQAkPrf8e6afNxFYA8x7iGp7KGRv+ihOZLejgFA6g/HgT1cOGWfVPa4Ni/pahkApN6QAfu7I3heIcY9wG5i3E3a+W7YdWSi6AIlzS8GAGnutIgcIITuNP2F0/Uh/baX00maSwYAaeZE4ACwhxD3EJM9xPgKSdxDmu4Jzx9+o+gCJeksA4B0Zbpr8ReO4skPQfWg6/GS+okBQDqvewhOCIcIHDw/TZ/voVrdw/Brr4UdpEUXKUkzwQCgsojA68A+upvt9hHDPuAAMdtHqLzKM/te90Y1ksrCAKD54jjdm9J0R+4Jh4CDxHwPefUQsbXX6XlJOs8AoF53BthPd/S+nxgOk+T7yMNhQthPNezneP1A2L27VXCdktRXDAAqyhSRQxAPQnKQJB4i5wAJh8jiASr560x29oeXjp4uulBJmo8MAJpJTbpT8QeJHCJc+Dgeh3iQvHqIJB7nmX2HQnddXpJUAAOA3l7kNIGjwBHgGHCUGI4ROEbIj5AnhyF7g0rlMJ32666xS1L/MADMfxE4QeQ4IZyAeILurWCnHycngKOQHyGGo1Q4Rh6O0V5wNOza1S62dEnSbDEAFG8C6Ew/jkROnHsl0ASmCJwi0iSECWI8TYhNYjgNYYJIkySeImcSwgQhTjf2/ATJ4Imwc8/JIv5RkqTe9v8DiohKGSCZ5QIAAAAASUVORK5CYII=;" vertex="1" parent="1">
          <mxGeometry x="282" y="272" width="30" height="30" as="geometry" />
        </mxCell>
        <mxCell id="b8NWn7PsdyPl2fr5w7l8-86" value="" style="shape=image;aspect=fixed;image=data:image/svg+xml,PD94bWwgdmVyc2lvbj0iMS4wIiBlbmNvZGluZz0idXRmLTgiPz4NCjwhLS0gR2VuZXJhdG9yOiBBZG9iZSBJbGx1c3RyYXRvciAxOS4xLjEsIFNWRyBFeHBvcnQgUGx1Zy1JbiAuIFNWRyBWZXJzaW9uOiA2LjAwIEJ1aWxkIDApICAtLT4NCjxzdmcgdmVyc2lvbj0iMS4xIg0KCSBpZD0ic3ZnMzAyMSIgeG1sbnM6ZGM9Imh0dHA6Ly9wdXJsLm9yZy9kYy9lbGVtZW50cy8xLjEvIiB4bWxuczpzb2RpcG9kaT0iaHR0cDovL3NvZGlwb2RpLnNvdXJjZWZvcmdlLm5ldC9EVEQvc29kaXBvZGktMC5kdGQiIHhtbG5zOmlua3NjYXBlPSJodHRwOi8vd3d3Lmlua3NjYXBlLm9yZy9uYW1lc3BhY2VzL2lua3NjYXBlIiB4bWxuczpyZGY9Imh0dHA6Ly93d3cudzMub3JnLzE5OTkvMDIvMjItcmRmLXN5bnRheC1ucyMiIHhtbG5zOnN2Zz0iaHR0cDovL3d3dy53My5vcmcvMjAwMC9zdmciIHhtbG5zOmNjPSJodHRwOi8vY3JlYXRpdmVjb21tb25zLm9yZy9ucyMiIGlua3NjYXBlOnZlcnNpb249IjAuNDguNCByOTkzOSIgc29kaXBvZGk6ZG9jbmFtZT0ic2NhbGEtanMtbG9nby1kYXJrZW5pbmctYW5kLXBlcnNwZWN0aXZlLnN2ZyIgaW5rc2NhcGU6ZXhwb3J0LWZpbGVuYW1lPSJDOlxVc2Vyc1xTZXBpXERvY3VtZW50c1xQcm9qZXRzXHNjYWxhanMtd2Vic2l0ZVxpbWFnZXNcc2NhbGEtanMtbG9nby1wZXJzcGVjdGl2ZS0yNTYucG5nIiBpbmtzY2FwZTpleHBvcnQteWRwaT0iNDEuODkwOTA3IiBpbmtzY2FwZTpleHBvcnQteGRwaT0iNDEuODkwOTA3Ig0KCSB4bWxucz0iaHR0cDovL3d3dy53My5vcmcvMjAwMC9zdmciIHhtbG5zOnhsaW5rPSJodHRwOi8vd3d3LnczLm9yZy8xOTk5L3hsaW5rIiB4PSIwcHgiIHk9IjBweCIgd2lkdGg9IjEwMjRweCIgaGVpZ2h0PSI3NjhweCINCgkgdmlld0JveD0iMCAwIDEwMjQgNzY4IiBzdHlsZT0iZW5hYmxlLWJhY2tncm91bmQ6bmV3IDAgMCAxMDI0IDc2ODsiIHhtbDpzcGFjZT0icHJlc2VydmUiPg0KPHN0eWxlIHR5cGU9InRleHQvY3NzIj4NCgkuc3Qwe2ZpbGw6I0Q2QkEzMjt9DQoJLnN0MXtmaWxsOiNGRkRBM0U7fQ0KCS5zdDJ7ZmlsbDp1cmwoI3BhdGgzMDQzXzFfKTt9DQoJLnN0M3tmaWxsOnVybCgjcGF0aDMwNDFfMV8pO30NCgkuc3Q0e2ZpbGw6dXJsKCNwYXRoMzA0MS03XzFfKTt9DQoJLnN0NXtmaWxsOnVybCgjcGF0aDMwNDMtNF8xXyk7fQ0KCS5zdDZ7ZmlsbDp1cmwoI3BhdGgzMDQ3XzFfKTt9DQoJLnN0N3tmaWxsOnVybCgjcGF0aDMwNDlfMV8pO30NCgkuc3Q4e2ZpbGw6dXJsKCNwYXRoMzA1MV8xXyk7fQ0KCS5zdDl7ZmlsbDp1cmwoI3BhdGgzMDQ3LTdfMV8pO30NCgkuc3QxMHtmaWxsOnVybCgjcGF0aDMwNDktN18xXyk7fQ0KCS5zdDExe2ZpbGw6dXJsKCNwYXRoMzA1MS05XzFfKTt9DQo8L3N0eWxlPg0KPHNvZGlwb2RpOm5hbWVkdmlldyAgaWQ9Im5hbWVkdmlldzMwNTMiIGZpdC1tYXJnaW4tcmlnaHQ9IjUwIiBwYWdlY29sb3I9IiNmZmZmZmYiIGdyaWR0b2xlcmFuY2U9IjEwIiBpbmtzY2FwZTpjeT0iMjIyLjMzNzEzIiBzaG93Z3JpZD0iZmFsc2UiIG9iamVjdHRvbGVyYW5jZT0iMTAiIGJvcmRlcmNvbG9yPSIjNjY2NjY2IiBndWlkZXRvbGVyYW5jZT0iMTAiIGZpdC1tYXJnaW4tbGVmdD0iNTAiIGJvcmRlcm9wYWNpdHk9IjEiIGlua3NjYXBlOmN4PSIzMzkuNDA5MzQiIGlua3NjYXBlOnpvb209IjAuNzA3MTA2NzgiIGlua3NjYXBlOndpbmRvdy15PSI0MSIgaW5rc2NhcGU6Y3VycmVudC1sYXllcj0ic3ZnMzAyMSIgaW5rc2NhcGU6d2luZG93LWhlaWdodD0iODkwIiBpbmtzY2FwZTp3aW5kb3ctbWF4aW1pemVkPSIxIiBpbmtzY2FwZTp3aW5kb3ctd2lkdGg9IjEzOTEiIGlua3NjYXBlOndpbmRvdy14PSI0MTgiIGlua3NjYXBlOnBhZ2VzaGFkb3c9IjIiIGlua3NjYXBlOnBhZ2VvcGFjaXR5PSIwIj4NCgk8L3NvZGlwb2RpOm5hbWVkdmlldz4NCjx0aXRsZSAgaWQ9InRpdGxlMzAyMyI+U2NhbGEuanM8L3RpdGxlPg0KPGRlc2MgIGlkPSJkZXNjMzAyNSI+VGhlIFNjYWxhIExvZ288L2Rlc2M+DQo8Zz4NCgk8cG9seWxpbmUgY2xhc3M9InN0MCIgcG9pbnRzPSIyNDkuMiw2NzQuNSAxOTAuOSwxOS40IDgzMy4xLDE5LjQgNzc0LjgsNjc0LjUgNTExLjMsNzQ4LjYgCSIvPg0KCTxwb2x5Z29uIGNsYXNzPSJzdDEiIHBvaW50cz0iNTEyLjcsNjk2LjUgNzI0LjksNjM4LjEgNzc0LjgsNzcgNTEyLjcsNzcgCSIvPg0KPC9nPg0KPGcgaWQ9ImczODg2IiB0cmFuc2Zvcm09InRyYW5zbGF0ZSgwLjI1LC0wLjY2NDIxMzU2KSI+DQoJDQoJCTxsaW5lYXJHcmFkaWVudCBpZD0icGF0aDMwNDNfMV8iIGdyYWRpZW50VW5pdHM9InVzZXJTcGFjZU9uVXNlIiB4MT0iMzAuNzMzOSIgeTE9IjY5Mi43NTUyIiB4Mj0iMzQwLjU3MjUiIHkyPSI2OTIuNzU1MiIgZ3JhZGllbnRUcmFuc2Zvcm09Im1hdHJpeCgxLjA1MDEgMCAwIDEuMTIwMSAzMTcuMTUgLTI5MC40MTIyKSI+DQoJCTxzdG9wICBvZmZzZXQ9IjAiIHN0eWxlPSJzdG9wLWNvbG9yOiM2NDY0NjQiLz4NCgkJPHN0b3AgIG9mZnNldD0iMSIgc3R5bGU9InN0b3AtY29sb3I6IzAwMDAwMCIvPg0KCTwvbGluZWFyR3JhZGllbnQ+DQoJPHBhdGggaWQ9InBhdGgzMDQzIiBpbmtzY2FwZTpjb25uZWN0b3ItY3VydmF0dXJlPSIwIiBjbGFzcz0ic3QyIiBkPSJNNTExLjksNDExLjhsMCwxMjQuMWM3NC45LTIuNSwxNDQuMiwwLjksMTQyLjksMjMuNA0KCQlsNi4zLTExMS4zQzY2MS4xLDQ0OCw2NjIuOSw0MTcsNTExLjksNDExLjhMNTExLjksNDExLjgiLz4NCgkNCgkJPGxpbmVhckdyYWRpZW50IGlkPSJwYXRoMzA0MV8xXyIgZ3JhZGllbnRVbml0cz0idXNlclNwYWNlT25Vc2UiIHgxPSIzMC43MzM5IiB5MT0iNjk4LjExNTEiIHgyPSIzNDAuNTcyNSIgeTI9IjY5OC4xMTUxIiBncmFkaWVudFRyYW5zZm9ybT0ibWF0cml4KDEuMDUwMSAwIDAgMS4xMjAxIDMxNy4xNSAtNDYzLjkzMzYpIj4NCgkJPHN0b3AgIG9mZnNldD0iMCIgc3R5bGU9InN0b3AtY29sb3I6IzY0NjQ2NCIvPg0KCQk8c3RvcCAgb2Zmc2V0PSIxIiBzdHlsZT0ic3RvcC1jb2xvcjojMDAwMDAwIi8+DQoJPC9saW5lYXJHcmFkaWVudD4NCgk8cGF0aCBpZD0icGF0aDMwNDEiIGlua3NjYXBlOmNvbm5lY3Rvci1jdXJ2YXR1cmU9IjAiIGNsYXNzPSJzdDMiIGQ9Ik01MTEuOSwyMjcuM2wwLDE0MS40Yzc5LjYsNC4zLDE1Mi45LDE0LjYsMTUxLjUsMzkuOQ0KCQlsNy4xLTEyNS40QzY3MC41LDI4My4zLDY3Mi41LDI0OC4yLDUxMS45LDIyNy4zTDUxMS45LDIyNy4zIi8+DQo8L2c+DQo8ZyBpZD0iZzQzMjUiIHRyYW5zZm9ybT0idHJhbnNsYXRlKDEuMzUzNTUzNCwwLjM1MzU1MzM5KSI+DQoJDQoJCTxsaW5lYXJHcmFkaWVudCBpZD0icGF0aDMwNDEtN18xXyIgZ3JhZGllbnRVbml0cz0idXNlclNwYWNlT25Vc2UiIHgxPSIyOS42MzAzIiB5MT0iNjYzLjM5MzYiIHgyPSIzMzkuNDY5IiB5Mj0iNjYzLjM5MzYiIGdyYWRpZW50VHJhbnNmb3JtPSJtYXRyaXgoMS4wNTAxIDAgMCAxLjEyMDEgMzE4Ljc0NjIgLTQ2Mi4zOTAzKSI+DQoJCTxzdG9wICBvZmZzZXQ9IjAiIHN0eWxlPSJzdG9wLWNvbG9yOiM0QjRCNEIiLz4NCgkJPHN0b3AgIG9mZnNldD0iMSIgc3R5bGU9InN0b3AtY29sb3I6IzAwMDAwMCIvPg0KCTwvbGluZWFyR3JhZGllbnQ+DQoJPHBhdGggaWQ9InBhdGgzMDQxLTciIGlua3NjYXBlOmNvbm5lY3Rvci1jdXJ2YXR1cmU9IjAiIGNsYXNzPSJzdDQiIGQ9Ik0zNDcuNCwxOTIuNmw3LjUsMTMzYzAsMCw3Ni40LDE3LjUsMTU3LjQsNDMuMXYtMTQxDQoJCUM0NjcuNCwyMTUuOCw0MTIuOSwyMDMuOCwzNDcuNCwxOTIuNkwzNDcuNCwxOTIuNiIvPg0KCQ0KCQk8bGluZWFyR3JhZGllbnQgaWQ9InBhdGgzMDQzLTRfMV8iIGdyYWRpZW50VW5pdHM9InVzZXJTcGFjZU9uVXNlIiB4MT0iMjkuNjMwMyIgeTE9IjY2MC45OTUxIiB4Mj0iMzM5LjQ2OSIgeTI9IjY2MC45OTUxIiBncmFkaWVudFRyYW5zZm9ybT0ibWF0cml4KDEuMDUwMSAwIDAgMS4xMjAxIDMxOC43NDYyIC0yODguODY4OCkiPg0KCQk8c3RvcCAgb2Zmc2V0PSIwIiBzdHlsZT0ic3RvcC1jb2xvcjojNEI0QjRCIi8+DQoJCTxzdG9wICBvZmZzZXQ9IjEiIHN0eWxlPSJzdG9wLWNvbG9yOiMwMDAwMDAiLz4NCgk8L2xpbmVhckdyYWRpZW50Pg0KCTxwYXRoIGlkPSJwYXRoMzA0My00IiBpbmtzY2FwZTpjb25uZWN0b3ItY3VydmF0dXJlPSIwIiBjbGFzcz0ic3Q1IiBkPSJNMzU3LjIsMzY3LjNsNi42LDExOGMwLDAsNzIuMiwyMS40LDE0OC40LDUwLjRWNDExLjYNCgkJQzQ3MC4yLDM5Ny41LDQxOSwzODIuNSwzNTcuMiwzNjcuM0wzNTcuMiwzNjcuMyIvPg0KPC9nPg0KPGcgaWQ9ImxheWVyMSIgaW5rc2NhcGU6bGFiZWw9IkpTIGxvZ28iIGlua3NjYXBlOmdyb3VwbW9kZT0ibGF5ZXIiPg0KPC9nPg0KPGcgaWQ9ImczODkwIiB0cmFuc2Zvcm09InRyYW5zbGF0ZSgwLjI1LC0wLjY2NDIxMzU2KSI+DQoJDQoJCTxsaW5lYXJHcmFkaWVudCBpZD0icGF0aDMwNDdfMV8iIGdyYWRpZW50VW5pdHM9InVzZXJTcGFjZU9uVXNlIiB4MT0iMzAuNzMzOSIgeTE9IjY2NS4xNjMzIiB4Mj0iMzQwLjU3MjUiIHkyPSI2NjUuMTYzMyIgZ3JhZGllbnRUcmFuc2Zvcm09Im1hdHJpeCgxLjA1MDEgMCAwIC0xLjEyMDEgMzE3LjE1IDk1NC4zMjg4KSI+DQoJCTxzdG9wICBvZmZzZXQ9IjAiIHN0eWxlPSJzdG9wLWNvbG9yOiNBMDAwMDAiLz4NCgkJPHN0b3AgIG9mZnNldD0iMSIgc3R5bGU9InN0b3AtY29sb3I6I0ZGMDAwMCIvPg0KCTwvbGluZWFyR3JhZGllbnQ+DQoJPHBhdGggaWQ9InBhdGgzMDQ3IiBpbmtzY2FwZTpjb25uZWN0b3ItY3VydmF0dXJlPSIwIiBjbGFzcz0ic3Q2IiBkPSJNNjgxLjEsOTYuNmMtMS44LDMxLTgzLjIsNTguMS0xNjkuMiw3OC44bDAsMTQ2LjUNCgkJQzY3MSwyNzQuMiw2NzMsMjM4LjksNjczLDIzOC45TDY4MS4xLDk2LjZMNjgxLjEsOTYuNiIvPg0KCQ0KCQk8bGluZWFyR3JhZGllbnQgaWQ9InBhdGgzMDQ5XzFfIiBncmFkaWVudFVuaXRzPSJ1c2VyU3BhY2VPblVzZSIgeDE9IjMwLjczMzkiIHkxPSI1MDQuNzAwNCIgeDI9IjM0MC41NzI1IiB5Mj0iNTA0LjcwMDQiIGdyYWRpZW50VHJhbnNmb3JtPSJtYXRyaXgoMS4wNTAxIDAgMCAtMS4xMjAxIDMxNy4xNSA5NTQuMzI4OCkiPg0KCQk8c3RvcCAgb2Zmc2V0PSIwIiBzdHlsZT0ic3RvcC1jb2xvcjojQTAwMDAwIi8+DQoJCTxzdG9wICBvZmZzZXQ9IjEiIHN0eWxlPSJzdG9wLWNvbG9yOiNGRjAwMDAiLz4NCgk8L2xpbmVhckdyYWRpZW50Pg0KCTxwYXRoIGlkPSJwYXRoMzA0OSIgaW5rc2NhcGU6Y29ubmVjdG9yLWN1cnZhdHVyZT0iMCIgY2xhc3M9InN0NyIgZD0iTTY3MC41LDI4My4zYy0xLjUsMjcuMi03OCw1Ny44LTE1OC42LDgzLjFsMCwxMjguMw0KCQljMTQ5LjctNTQuOCwxNTEuNS04NiwxNTEuNS04Nkw2NzAuNSwyODMuM0w2NzAuNSwyODMuMyIvPg0KCQ0KCQk8bGluZWFyR3JhZGllbnQgaWQ9InBhdGgzMDUxXzFfIiBncmFkaWVudFVuaXRzPSJ1c2VyU3BhY2VPblVzZSIgeDE9IjMwLjczMzkiIHkxPSIzNjMuMTk4MiIgeDI9IjM0MC41NzI1IiB5Mj0iMzYzLjE5ODIiIGdyYWRpZW50VHJhbnNmb3JtPSJtYXRyaXgoMS4wNTAxIDAgMCAtMS4xMjAxIDMxNy4xNSA5NTQuMzI4OCkiPg0KCQk8c3RvcCAgb2Zmc2V0PSIwIiBzdHlsZT0ic3RvcC1jb2xvcjojQTAwMDAwIi8+DQoJCTxzdG9wICBvZmZzZXQ9IjEiIHN0eWxlPSJzdG9wLWNvbG9yOiNGRjAwMDAiLz4NCgk8L2xpbmVhckdyYWRpZW50Pg0KCTxwYXRoIGlkPSJwYXRoMzA1MSIgaW5rc2NhcGU6Y29ubmVjdG9yLWN1cnZhdHVyZT0iMCIgY2xhc3M9InN0OCIgZD0iTTY2MS4xLDQ0OGMtMS40LDI0LjEtNzMuNSw1Ny4yLTE0OS4yLDg1LjhsMCwxMTMuMg0KCQljMTQxLjMtNjAsMTQyLjktODcuOCwxNDIuOS04Ny44TDY2MS4xLDQ0OEw2NjEuMSw0NDgiLz4NCjwvZz4NCjxnIGlkPSJnNDMyOSIgdHJhbnNmb3JtPSJ0cmFuc2xhdGUoMS4zNTM1NTM0LDAuMzUzNTUzMzkpIj4NCgkNCgkJPGxpbmVhckdyYWRpZW50IGlkPSJwYXRoMzA0Ny03XzFfIiBncmFkaWVudFVuaXRzPSJ1c2VyU3BhY2VPblVzZSIgeDE9IjI5LjYzMDMiIHkxPSI2MjcuOTc2OSIgeDI9IjMzOS40NjkiIHkyPSI2MjcuOTc2OSIgZ3JhZGllbnRUcmFuc2Zvcm09Im1hdHJpeCgxLjA1MDEgMCAwIC0xLjEyMDEgMzE4Ljc0NjIgOTUzLjU5MjIpIj4NCgkJPHN0b3AgIG9mZnNldD0iMCIgc3R5bGU9InN0b3AtY29sb3I6Izc4MDAwMCIvPg0KCQk8c3RvcCAgb2Zmc2V0PSIxIiBzdHlsZT0ic3RvcC1jb2xvcjojQzAwMDAwIi8+DQoJPC9saW5lYXJHcmFkaWVudD4NCgk8cGF0aCBpZD0icGF0aDMwNDctNyIgaW5rc2NhcGU6Y29ubmVjdG9yLWN1cnZhdHVyZT0iMCIgY2xhc3M9InN0OSIgZD0iTTUxMi4yLDE3NC43Yy04NS41LDEzLjItMTY0LjgsMTgtMTY0LjgsMThsNy41LDEzMw0KCQljNjIuMiwwLjYsMTE0LjItMS4zLDE1Ny40LTQuOVYxNzQuN0w1MTIuMiwxNzQuNyIvPg0KCQ0KCQk8bGluZWFyR3JhZGllbnQgaWQ9InBhdGgzMDQ5LTdfMV8iIGdyYWRpZW50VW5pdHM9InVzZXJTcGFjZU9uVXNlIiB4MT0iMjkuNjMwMyIgeTE9IjQ2OC4xNDMyIiB4Mj0iMzM5LjQ2OSIgeTI9IjQ2OC4xNDMyIiBncmFkaWVudFRyYW5zZm9ybT0ibWF0cml4KDEuMDUwMSAwIDAgLTEuMTIwMSAzMTguNzQ2MiA5NTMuNTkyMikiPg0KCQk8c3RvcCAgb2Zmc2V0PSIwIiBzdHlsZT0ic3RvcC1jb2xvcjojNzgwMDAwIi8+DQoJCTxzdG9wICBvZmZzZXQ9IjEiIHN0eWxlPSJzdG9wLWNvbG9yOiNDMDAwMDAiLz4NCgk8L2xpbmVhckdyYWRpZW50Pg0KCTxwYXRoIGlkPSJwYXRoMzA0OS03IiBpbmtzY2FwZTpjb25uZWN0b3ItY3VydmF0dXJlPSIwIiBjbGFzcz0ic3QxMCIgZD0iTTUxMi4yLDM2NS4xYy04MC4yLDQuNi0xNTUsMi4yLTE1NSwyLjJsNi42LDExOA0KCQljNTguOCw1LjUsMTA3LjgsNy44LDE0OC40LDguMVYzNjUuMUw1MTIuMiwzNjUuMSIvPg0KCQ0KCQk8bGluZWFyR3JhZGllbnQgaWQ9InBhdGgzMDUxLTlfMV8iIGdyYWRpZW50VW5pdHM9InVzZXJTcGFjZU9uVXNlIiB4MT0iMjkuNjMwMyIgeTE9IjMyOS43NjA5IiB4Mj0iMzM5LjQ2OSIgeTI9IjMyOS43NjA5IiBncmFkaWVudFRyYW5zZm9ybT0ibWF0cml4KDEuMDUwMSAwIDAgLTEuMTIwMSAzMTguNzQ2MiA5NTMuNTkyMikiPg0KCQk8c3RvcCAgb2Zmc2V0PSIwIiBzdHlsZT0ic3RvcC1jb2xvcjojNzgwMDAwIi8+DQoJCTxzdG9wICBvZmZzZXQ9IjEiIHN0eWxlPSJzdG9wLWNvbG9yOiNDMDAwMDAiLz4NCgk8L2xpbmVhckdyYWRpZW50Pg0KCTxwYXRoIGlkPSJwYXRoMzA1MS05IiBpbmtzY2FwZTpjb25uZWN0b3ItY3VydmF0dXJlPSIwIiBjbGFzcz0ic3QxMSIgZD0iTTUxMi4yLDUzMi41Yy03NS42LTIuMi0xNDYuMy0xMC4xLTE0Ni4zLTEwLjFsNS45LDEwNS40DQoJCWM1NS44LDkuMywxMDIuMSwxNSwxNDAuNCwxOC4zVjUzMi41TDUxMi4yLDUzMi41Ii8+DQo8L2c+DQo8L3N2Zz4NCg==;" vertex="1" parent="1">
          <mxGeometry x="436" y="349.25" width="42" height="31.5" as="geometry" />
        </mxCell>
        <mxCell id="b8NWn7PsdyPl2fr5w7l8-87" value="" style="group" vertex="1" connectable="0" parent="1">
          <mxGeometry x="650" y="284.7" width="60" height="70.6" as="geometry" />
        </mxCell>
        <mxCell id="b8NWn7PsdyPl2fr5w7l8-92" value="" style="group" vertex="1" connectable="0" parent="b8NWn7PsdyPl2fr5w7l8-87">
          <mxGeometry width="60" height="70.6" as="geometry" />
        </mxCell>
        <mxCell id="b8NWn7PsdyPl2fr5w7l8-88" value="" style="verticalLabelPosition=bottom;html=1;verticalAlign=top;strokeWidth=1;align=center;outlineConnect=0;dashed=0;outlineConnect=0;shape=mxgraph.aws3d.file;aspect=fixed;strokeColor=#292929;" vertex="1" parent="b8NWn7PsdyPl2fr5w7l8-92">
          <mxGeometry x="14.600000000000023" width="30.8" height="70.6" as="geometry" />
        </mxCell>
        <mxCell id="b8NWn7PsdyPl2fr5w7l8-91" value=".jar" style="text;html=1;align=center;verticalAlign=middle;whiteSpace=wrap;rounded=0;" vertex="1" parent="b8NWn7PsdyPl2fr5w7l8-92">
          <mxGeometry x="14.6" y="20.3" width="30" height="30" as="geometry" />
        </mxCell>
        <mxCell id="b8NWn7PsdyPl2fr5w7l8-90" style="edgeStyle=orthogonalEdgeStyle;rounded=0;orthogonalLoop=1;jettySize=auto;html=1;exitX=1;exitY=0.5;exitDx=0;exitDy=0;" edge="1" parent="1" source="b8NWn7PsdyPl2fr5w7l8-24" target="b8NWn7PsdyPl2fr5w7l8-88">
          <mxGeometry relative="1" as="geometry">
            <mxPoint x="660" y="310" as="targetPoint" />
          </mxGeometry>
        </mxCell>
        <mxCell id="b8NWn7PsdyPl2fr5w7l8-102" style="edgeStyle=orthogonalEdgeStyle;rounded=0;orthogonalLoop=1;jettySize=auto;html=1;exitX=0;exitY=0;exitDx=63.74999999999999;exitDy=25;exitPerimeter=0;" edge="1" parent="1" source="b8NWn7PsdyPl2fr5w7l8-97" target="b8NWn7PsdyPl2fr5w7l8-77">
          <mxGeometry relative="1" as="geometry">
            <mxPoint x="750" y="485" as="sourcePoint" />
            <mxPoint x="760" y="268.70000000000005" as="targetPoint" />
            <Array as="points">
              <mxPoint x="770" y="485" />
              <mxPoint x="770" y="269" />
            </Array>
          </mxGeometry>
        </mxCell>
        <mxCell id="b8NWn7PsdyPl2fr5w7l8-97" value="&lt;span style=&quot;font-weight: normal;&quot;&gt;&lt;font style=&quot;font-size: 11px;&quot;&gt;Python API&lt;/font&gt;&lt;/span&gt;" style="shape=folder;fontStyle=1;tabWidth=50;tabHeight=10;tabPosition=left;html=1;boundedLbl=1;whiteSpace=wrap;" vertex="1" parent="1">
          <mxGeometry x="646.25" y="460" width="63.75" height="40" as="geometry" />
        </mxCell>
        <mxCell id="b8NWn7PsdyPl2fr5w7l8-98" style="rounded=0;orthogonalLoop=1;jettySize=auto;html=1;exitX=1;exitY=0.5;exitDx=0;exitDy=0;entryX=0;entryY=0;entryDx=0;entryDy=25;entryPerimeter=0;dashed=1;endArrow=open;endFill=0;" edge="1" parent="1" source="b8NWn7PsdyPl2fr5w7l8-80" target="b8NWn7PsdyPl2fr5w7l8-97">
          <mxGeometry relative="1" as="geometry" />
        </mxCell>
        <mxCell id="b8NWn7PsdyPl2fr5w7l8-101" style="edgeStyle=orthogonalEdgeStyle;rounded=0;orthogonalLoop=1;jettySize=auto;html=1;exitX=0;exitY=0;exitDx=63.74999999999999;exitDy=25;exitPerimeter=0;" edge="1" parent="1" source="b8NWn7PsdyPl2fr5w7l8-99" target="b8NWn7PsdyPl2fr5w7l8-77">
          <mxGeometry relative="1" as="geometry">
            <mxPoint x="760" y="268.70000000000005" as="targetPoint" />
            <Array as="points">
              <mxPoint x="770" y="439" />
              <mxPoint x="770" y="269" />
            </Array>
          </mxGeometry>
        </mxCell>
        <mxCell id="b8NWn7PsdyPl2fr5w7l8-105" value="&lt;i&gt;calls though&lt;/i&gt;&lt;div&gt;&lt;i&gt;a FFI library&lt;/i&gt;&lt;/div&gt;" style="edgeLabel;html=1;align=center;verticalAlign=middle;resizable=0;points=[];" vertex="1" connectable="0" parent="b8NWn7PsdyPl2fr5w7l8-101">
          <mxGeometry x="-0.0457" relative="1" as="geometry">
            <mxPoint y="-1" as="offset" />
          </mxGeometry>
        </mxCell>
        <mxCell id="b8NWn7PsdyPl2fr5w7l8-99" value="&lt;span style=&quot;font-weight: normal;&quot;&gt;&lt;font style=&quot;font-size: 11px;&quot;&gt;C API&lt;/font&gt;&lt;/span&gt;" style="shape=folder;fontStyle=1;tabWidth=50;tabHeight=10;tabPosition=left;html=1;boundedLbl=1;whiteSpace=wrap;" vertex="1" parent="1">
          <mxGeometry x="646.25" y="414" width="63.75" height="40" as="geometry" />
        </mxCell>
        <mxCell id="b8NWn7PsdyPl2fr5w7l8-100" style="edgeStyle=orthogonalEdgeStyle;rounded=0;orthogonalLoop=1;jettySize=auto;html=1;exitX=1;exitY=0.5;exitDx=0;exitDy=0;entryX=0;entryY=0;entryDx=0;entryDy=25;entryPerimeter=0;dashed=1;endArrow=open;endFill=0;" edge="1" parent="1" source="b8NWn7PsdyPl2fr5w7l8-80" target="b8NWn7PsdyPl2fr5w7l8-99">
          <mxGeometry relative="1" as="geometry" />
        </mxCell>
        <mxCell id="b8NWn7PsdyPl2fr5w7l8-103" value="&lt;i&gt;generates&lt;/i&gt;" style="edgeLabel;html=1;align=center;verticalAlign=middle;resizable=0;points=[];" vertex="1" connectable="0" parent="b8NWn7PsdyPl2fr5w7l8-100">
          <mxGeometry x="-0.3467" y="-2" relative="1" as="geometry">
            <mxPoint x="11" y="-2" as="offset" />
          </mxGeometry>
        </mxCell>
        <mxCell id="b8NWn7PsdyPl2fr5w7l8-106" value="&lt;font style=&quot;font-size: 11px;&quot;&gt;User of&amp;nbsp;&lt;/font&gt;&lt;div style=&quot;font-size: 11px;&quot;&gt;&lt;font style=&quot;font-size: 11px;&quot;&gt;the library&lt;/font&gt;&lt;/div&gt;" style="shape=umlActor;verticalLabelPosition=bottom;verticalAlign=top;html=1;outlineConnect=0;" vertex="1" parent="1">
          <mxGeometry x="668.13" y="550" width="20" height="40" as="geometry" />
        </mxCell>
        <mxCell id="b8NWn7PsdyPl2fr5w7l8-107" style="edgeStyle=orthogonalEdgeStyle;rounded=0;orthogonalLoop=1;jettySize=auto;html=1;entryX=0.5;entryY=1;entryDx=0;entryDy=0;entryPerimeter=0;" edge="1" parent="1" source="b8NWn7PsdyPl2fr5w7l8-106" target="b8NWn7PsdyPl2fr5w7l8-97">
          <mxGeometry relative="1" as="geometry" />
        </mxCell>
        <mxCell id="b8NWn7PsdyPl2fr5w7l8-108" value="&lt;i&gt;uses&lt;/i&gt;" style="edgeLabel;html=1;align=center;verticalAlign=middle;resizable=0;points=[];" vertex="1" connectable="0" parent="b8NWn7PsdyPl2fr5w7l8-107">
          <mxGeometry x="0.0128" y="-1" relative="1" as="geometry">
            <mxPoint x="-1" y="3" as="offset" />
          </mxGeometry>
        </mxCell>
        <mxCell id="b8NWn7PsdyPl2fr5w7l8-140" value="" style="rounded=1;whiteSpace=wrap;html=1;strokeColor=none;fillColor=#CCFFFF;shadow=0;opacity=30;" vertex="1" parent="1">
          <mxGeometry x="255.4" y="407" width="484.6" height="133" as="geometry" />
        </mxCell>
        <mxCell id="b8NWn7PsdyPl2fr5w7l8-141" value="&lt;b&gt;&lt;font style=&quot;font-size: 10px;&quot;&gt;Transpilation infrastructure&lt;/font&gt;&lt;/b&gt;" style="text;html=1;align=center;verticalAlign=middle;whiteSpace=wrap;rounded=0;" vertex="1" parent="1">
          <mxGeometry x="410" y="520" width="160" height="20" as="geometry" />
        </mxCell>
      </root>
    </mxGraphModel>
  </diagram>
</mxfile>
